<?xml version="1.0" encoding="UTF-8"?>
<!-- Created with Inkscape (http://www.inkscape.org/) -->
<svg width="16" height="16" version="1.1" viewBox="0 0 16 16" xmlns="http://www.w3.org/2000/svg">
 <circle cx="8" cy="8" r="8" stop-color="#000000" stroke-linejoin="round" stroke-width="18.9" style="paint-order:stroke fill markers"/>
 <path d="m9.82 14.5c-0.121 0.0342-2.79-3.52-2.91-3.56-0.118-0.0436-4.46 0.93-4.52 0.825-0.07-0.104 2.49-3.74 2.5-3.87s-2.26-3.95-2.18-4.05c0.078-0.099 4.33 1.21 4.45 1.18 0.121-0.0342 3.06-3.38 3.18-3.33 0.118 0.0436 0.186 4.49 0.256 4.6 0.07 0.104 4.16 1.86 4.15 2-0.0049 0.126-4.22 1.56-4.29 1.66-0.078 0.099-0.492 4.52-0.615 4.56z" fill="#fff" stop-color="#000000" stroke-linejoin="round" stroke-width="18.9" style="paint-order:stroke fill markers"/>
</svg>
