<?xml version="1.0" encoding="UTF-8"?>
<!-- Created with Inkscape (http://www.inkscape.org/) -->
<svg width="95mm" height="131mm" version="1.1" viewBox="0 0 358 495" xmlns="http://www.w3.org/2000/svg">
 <g stroke-width=".47">
  <path d="m171 0.8c20-3.5 18 24 36 14 23-0.65 36 26 35 47 0.65 16-14 29-18 41 7.5 19 7.5 41 15 60 12-11 7.9-24 12-37 8.4-16-32-30-7.9-39 10 0.79 23 14 13-4.6-10-12 2.2-29 14-19 17-15 22 16 35 21 4.2 17 4.6 37-0.7 55-7.5 17-26 22-33 39-7 13-34 23-11 34 17 13-27-4.3-14 12-2.5 15-0.044 31 8.4 45 8.4 18 29 23 45 31-12 18-38 19-58 14-12-14-9.8 31-9.3 21 9.8-1.3 25 5.1 29-8.9 7.5-25 37 7 14 14-12-7.5-20 13-32 4.5-7.5 5.1 8.4 11 2.6 22-1.3 22-0.27 45-3 66-25 21-50 42-75 61-16-8.9-31-22-47-33-23-8.9-14-35-19-55-2.3-19 0.084-35-14-47-11-19-25-37-34-58-13-27 22-23 38-31 12-7 39-6.5 43-17-11-12-16-31-27-40-13-5.6-24-11-38-9.8-21-2.8-27-27-46-32-14-3.4-37-37-13-37 28 17-20-19 2.4-30 11-7.9 26 25 22 0.79-2.1-20 26-26 25-3.6-0.33 18 14 22 16 4.4-7.5-18-8.9-44 8.9-57 14-5.1 18-21 32-27 7.5-14 23-20 38-20 4.2-2.1 8.9-2.8 14-2.8z" stop-color="#000000" style="paint-order:stroke fill markers"/>
  <path d="m110 444c-0.18 0.19 0.51 5.6 0.75 5.6 0.14 0.15 13 9.3 28 21l28 20 0.12-1.4c0.065-0.79 0.11-2 0.084-2.7l-0.044-1.3-6e-3 -5e-3 0.011-0.61-5e-3 -0.01 0.098-2.1c0.056-1.2 0.1-3.3 0.11-4.7l8e-3 -2.5 6e-3 -5e-3 -6e-3 -0.056v-0.028l-5e-3 -5e-3 -0.065-0.61 8e-3 6e-3 0.075-0.98c0.045-0.51 0.065-1 0.043-1.1h-8e-3l0.089-1.2c0.084-0.22 0.037-0.65 0.037-1.3v-1.7l-0.02-0.014-0.018-0.7 5e-3 5e-3c0.026-0.017 0.15-4.7 0.28-11 0.13-6.1 0.23-12 0.23-14l8e-3 -2.8-0.016-0.028 0.35-15 5e-3 -0.038c0.056-0.45 0.15-3.5 0.21-7l0.098-6.1-7e-3 -5e-3c0.011-0.075 0.12-1.1 0.15-1.5-0.019-0.75-0.14-0.89-0.1-1.6h8e-3c0.056-1.1 0.098-3 0.098-4.2v-2.1l-33-16c-18-8.9-33-16-33-16l3.7e-4 2e-3c-0.19-0.065-0.16 0.41 0.3 4.7l0.37 3.1c-0.039 0.56 1.5 15 1.7 15l1.1 9.3c-0.16 0.3 1.9 21 2.1 22l0.12 0.93c-0.022 0.017 0.039 0.89 0.14 2l0.19 1.9 0.19 0.84c-0.2 0.2 0.15 2.3 0.43 2.5l-0.098 0.7c-0.065 0.065 0.84 8.9 0.93 9.3z" fill="#f0f" stop-color="#000000" style="paint-order:stroke fill markers"/>
  <path d="m240 419-0.051-1.5 0.033-0.61 0.11-1c0.061-0.56 0.079-1.1 0.043-1.1l-0.017-0.36c0.038-0.36 0.07-0.37 0.075-1 5e-3 -0.44 0.12-3.8 0.24-7.5 0.13-3.6 0.23-7 0.23-7.9v-1.1l0.47-13c0-1.2 0.45-15 0.56-17 0.075-1.5 0.065-1.7-0.056-1.9l0.012-1c0.14-0.13 0.37-6.5 0.23-6.5v-1e-3c-0.079 0-71 45-71 45-0.034 0.026-0.098 1.8-0.14 3.9l-0.084 3.9 0.035-0.023 0.11 0.93-0.024 0.015-0.098 0.75c-0.16 1.2-0.29 11-0.14 11l-0.47 18-0.014 0.028-0.22 11c-0.26 12-0.29 14-0.16 14 4e-5 0 7e-3 -6e-3 7e-3 -6e-3l-0.061 0.75 0.012 7e-3c-0.18 0.21-0.21 3-0.04 3l-5e-3 6e-3 -0.075 0.75-0.051 1.3c-0.017 0.47-0.14 0.89-0.018 0.98-7e-3 0.075 0.065 0.93 0.065 0.93l-0.11 1.3c-0.13 1.6-0.17 8.4-0.051 8.4v5e-3l-0.15 1.3c-0.15 0.44-0.089 0.93-0.089 1.9-5e-3 2.6-3.6 5.1 24-17 13-11 29-23 35-28l11-8.9 0.13-0.84c0.07-0.45 0.1-1.5 0.075-2.3l-0.042-1.5 0.056-0.7 0.1-0.84c0.056-0.45 0.075-1.5 0.051-2.4l-0.051-1.6z" fill="#f0f" stop-color="#000000" style="paint-order:stroke fill markers"/>
 </g>
 <g transform="matrix(.47 0 0 .47 -31 -14)">
  <path d="m469 180c-1.2-0.064-2.6 0.14-4.4 0.41-22 3.4-52 12-71 21-17 7.7-36 20-36 24-0.29 2.2-0.22 2.2 1.2 1.5 11-5.8 34-6.8 44-2 11 5 5.7 12-8.1 12-7.3 0-21 2.4-29 5-3 1-6.5 2.2-7.8 2.5-1.3 0.36-2.4 0.71-2.5 0.77-0.68 0.68-1.4 24-0.74 24 0.12 0.12 2-1.6 4.3-3.9 18-19 43-20 63-2.9 7.4 6.5 7.2 6.2 3.1 3.5-5.4-3.6-20-11-21-11-0.12 0 1.1 0.86 2.8 1.9 6.1 3.8 13 10 17 17 3 4.2 3 4.3 0.092 2.1-5.7-4.3-20-12-21-11-0.055 0.055 0.65 1.2 1.6 2.6 9 14 7.5 34-3 39-10 5-22-3-27-18-2.1-6.5-2-18 0.13-21 0.83-1.3 0.36-1.3-1.3-0.13-8.9 6.1-9.4 18-1.6 32 0.9 1.7 1.7 3.6 1.8 4.2l0.23 1.1-1.9-0.23c-2.1-0.26-4.3-0.98-7.5-2.4-1.1-0.49-2.1-0.9-2.3-0.9-0.36 0 3.9 13 6.4 19l1.9 4.9 3.5-0.14c4.2-0.18 7-0.76 9.6-2 2.5-1.2 2.6-1.3 0.74-2.2-3.8-1.8-9.2-9-9.2-12-0.028-2.6 0.25-2.6 5.3 0.41 4.7 2.8 15 5.4 21 5.5l4.3 0.018 3.9-1.9c7.5-3.7 11-6.9 13-11 1.2-2.5 2.2 1 1.3 4.7-3.3 14-34 28-50 24-2.5-0.7-2.5-1 0.61 5.3 9.6 19 24 40 44 63l5.4 6.2 2.6 0.83c7.5 2.4 21 3.5 28 2.5 23-3.6 35-9.2 47-21 24-25 34-60 24-82-3.6-8.1-5-11-6.2-15l-1.3-3.8-3.1 2.2c-8.9 6.4-22 8.4-32 5.1-0.62-0.19-0.26 0.29 1.3 1.7 15 13 7.9 30-15 38-16 5.6-28 2.2-34-9.7-9.3-20 13-43 35-36 1.7 0.5 3.5 0.96 4.1 1 0.57 0.046 2 0.27 3.1 0.5 15 3 32-11 30-24-2.5-24-19-37-31-25l-1.3 1.4h1c5.5 0 13 13 14 25 2.5 24-20 27-25 3.1-0.65-3.4-1-3.2-1.1 0.56-0.055 2.5-0.25 2.2-1.9-2.6-2.9-8.4-2.9-17-0.21-24 0.56-1.6 0.96-3 0.9-3-0.19-0.19-2.1 5-3.4 9.3-0.69 2.3-1.6 5-2 6-0.38 1.1-0.98 3.3-1.3 5l-0.59 3-0.037-2c-0.27-16 5.9-28 19-37 6.4-4.4 17-5.3 26-2.2 3.2 1.2 3.2 1.2 0.74-3.1-2.1-3.7-6.8-12-7-12-0.41-0.44-16 3.3-20 4.7-3.9 1.5-10 6.3-17 12-5.9 5.5-9.8 5.4-12-0.25-4.7-11 18-29 36-28 4.5 0.055 4.4 0.24 1.9-2.6-9.1-10-11-13-15-13zm49 80c0.093-0.38-0.42 0.4-1.1 1.7-0.72 1.3-2.1 3.4-3 4.7-0.93 1.3-1.9 2.7-2.2 3-0.38 0.53-0.4 0.81-0.092 1.3 1.8 2.5 2.6 5.2 2.1 6.9-0.34 1.2 0.037 1.2 2.1 0.16 0.86-0.44 0.85-0.44 0.86-5.7 0.018-4.7 0.4-8 1.4-12zm-196 25c-1.7 3.7e-4 -2.5 0.23-5 1.4-1.6 0.78-3.5 1.5-4.2 1.6-0.69 0.12-2 0.74-2.9 1.4-0.91 0.64-2.5 1.7-3.6 2.3-6.5 3.7-9.2 15-5.9 26 0.48 1.6 1.5 5.3 2.2 8.2 3.9 15 9.3 23 19 26 4.8 1.8 4.4 1.9 4.2-1.9l-0.23-3.2-1.9-2c-1.2-1.2-2.6-2.3-3.5-2.8l-1.6-0.7-1.3 0.86c-2.5 1.7-5 0.49-5.9-2.8-0.83-3-0.15-3.8 1-1.2 1.4 3.2 2.2 3.4 4.2 1.6 1-0.94 1.6-1.2 2.7-1.2 1.5 0 1.7-0.43 2.9-4.6l0.5-1.7-0.11 2.9c-0.055 1.6-0.21 3.1-0.34 3.4-0.17 0.38 0.083 0.7 0.88 1.1 0.62 0.32 1.5 0.84 1.9 1.1l0.77 0.56-0.018-12c-8e-3 -9.4-0.11-12-0.47-13-0.4-0.53-0.49-0.29-0.72 1.9l-0.27 2.5-0.75-4.4c-0.79-4.6-1.2-5.3-3-6.3-2.2-1.1-5.4 2.6-5.4 6.4 0 1.5-0.57 1.8-1.4 0.86-0.58-0.7-0.57-4.2 0.018-5.7 2.3-5.7 6.5-6.8 10-2.6l1.7 1.8-0.21-4.8c-0.24-5.3-0.36-5.7-2.9-7.6-6.1-4.7-13 0.74-15 12-0.28 1.7-1.1 1.7-1.6-0.11-2.8-9.4 8.1-20 16-16 2.4 1.1 2.2 1.4 1.9-4.7l-0.3-5.2zm185 30c0 0.46-2.8 4.2-4.5 6.1l-1.4 1.5 1.2 1.6c5.3 7 4.5 25-1.9 40-8.8 20-21 27-47 26-22-1.1-48-14-46-24 0.19-1.4 0.14-1.5-0.72-1.8-1-0.34 1.5-1 9.3-2.5 3.8-0.72 16-4.7 24-8.3 2.4-0.94 6.7-2.6 9.6-3.7 25-9.5 40-18 52-29 3.1-3 5.6-5.3 5.6-5.1zm-16 90-2.1 1.1c-16 8.1-38 12-54 9.3-1.8-0.28-3.4-0.44-3.5-0.38-1.4 1.4 35 32 42 36 2.7 1.3 14 4.1 20 4.8l3.6 0.47 0.21-1.7c0.12-0.91 0.48-2 0.79-2.5 0.71-1.1 2.5-2.2 3.6-2.2 0.75 0 0.79-0.11 0.61-1.8-0.1-0.99-0.28-5-0.4-9-0.22-7.8-0.58-12-1.4-17l-0.52-2.9-2.7-2.5c-3.1-2.9-4.9-5.9-5.5-9.4zm14 16c1.4 7.1 0.92 23-0.91 28-0.46 1.3-0.43 1.4 0.68 2.9 0.63 0.82 1.1 1.8 1.1 2.2 0 1 0.28 0.67 3.4-4.5 1.6-2.7 3.1-5.7 3.6-7.2 0.46-1.4 1.1-2.8 1.3-3.1 0.47-0.52 0.34-0.89-1.4-3.8-1-1.8-3.3-5.9-5-9.2s-3-5.6-2.9-5.1zm-43 35c-1.7-0.62 4.8 5.5 6.7 6.3 5.4 2.3 13 3 19 1.9 1.6-0.29 4.2-0.91 5.9-1.4 1.6-0.47 3.3-0.83 3.6-0.77 0.45 0.074 1-0.32 1.7-1.2l0.95-1.3-2.5-2.5-4.8 0.11c-3.3 0.074-5.5-0.037-7.1-0.4-1.3-0.28-2.5-0.47-2.5-0.41-0.18 0.18 5.4 4.1 5.7 4.1 0.15-0.037 0.35 0.2 0.43 0.52 0.58 2.2-15-0.67-27-4.9z" fill="#f0c1d7" stop-color="#000000" style="paint-order:stroke fill markers"/>
  <path d="m639 735-3.1 1.8c-1.7 1-4.1 2.4-5.2 3-4.9 2.7-11 6.2-16 9.9-3.4 2.2-7.2 4.6-8.5 5.3-1.3 0.71-2.4 1.4-2.5 1.6-0.3 0.49-1.5 0.37-3.9-0.38-3.5-1.1-11-2.3-18-3.1-3.8-0.39-8.1-0.89-9.7-1.1l-2.8-0.38-2.1 2.3c-2.1 2.2-9.2 7.8-12 9.6l-1.6 0.91 0.5 1.4c0.27 0.77 0.67 2.8 0.88 4.6l0.4 3.2 6 2.4c7.2 2.9 5.1 3.4 13-3.5h0.018c10-8.7 11-9.1 16-7.4 1.7 0.59 5.1 1.6 7.6 2.3 2.5 0.67 5.1 1.4 5.6 1.5 1.2 0.39 5.5-2.2 15-8.9 7.4-5.3 9.1-6.3 16-9.4 3.1-1.4 6.9-3.2 8.4-4 4.9-2.3 6-8.7 1.8-10-0.66-0.21-2-0.65-3-0.97z" fill="#e5c04c" stop-color="#000000" style="paint-order:stroke fill markers"/>
  <path d="m650 717c-9 0.18-16 7.3-16 17v2.5l2.1-1.1c1.1-0.64 2.4-1.6 2.7-2.2 2-3.3 8.8-2.4 11 1.5 3.4 5.3 1.4 14-3.5 15-1.6 0.34-5.1 2-5 2.4 0.75 2.7 11 3.4 16 1.1 14-7 12-32-3.3-35-1.3-0.27-2.6-0.38-3.9-0.36z" fill="#cd152f" stop-color="#000000" style="paint-order:stroke fill markers"/>
  <path d="m565 662c-0.36 0.097-0.94 0.57-1.9 1.3-2.9 2.1-10 5.8-18 8.7-32 13-70 15-76 5.5-0.42-0.75-0.86-1.4-0.97-1.4-0.16 0-7.1 27-8.6 33-0.64 2.8 5 2.5 28-1.5 22-3.7 38-7.6 52-12 4.1-1.4 4.8-1.4 1.7-0.018-1.2 0.52-6 2.7-11 4.8-13 5.8-20 7.9-35 10-16 2.6-27 3.6-32 2.9-1.8-0.22-3.6-0.44-3.9-0.47-1.3-0.1-3.5 23-2.7 29 0.16 1.1 3.5 2.5 9.9 4.1 14 3.4 37 1.7 54-3.9 3-0.94 5.5-1.6 5.5-1.6 0.11 0.11-8.8 3.4-14 5.2-15 5.2-37 5.2-51 0.092-2-0.79-4-1.5-4.4-1.6-1.3-0.37-0.23 14 1.7 24l0.97 5 1.5 1.1c13 9.1 45 11 65 4.4 6.6-2.3 7-2.2 1 0.27-12 5-22 6.3-37 4.9-14-1.2-21-3.1-27-7.5-1-0.68-1.9-1.2-1.9-1.1-0.37 0.37 6 22 8.3 29 1.9 5.3 1.3 4.9 8.4 5.7 15 1.5 30 0.93 36-1.3 1.1-0.45 1.2-0.47 0.7-0.055-4.1 3.2-25 4.5-40 2.6-1.2-0.14-2.1-0.21-2.1-0.16 0 1.1 12 25 12 26 0.47 0.29 0.39 1.2-0.11 1.2-0.24 4e-3 -2.7-1.1-5.6-2.5-2.8-1.4-7.4-3.6-10-5-13-6.4-42-28-54-40-1.3-1.4-3.7-3.4-5.3-4.5-10-7.1-19-14-27-23-4.1-4-5.3-5.3-3.2-3.5 5.5 4.9 7.5 6.5 14 11 7.4 5.7 13 9.5 13 9.5 0.12 0-1.2-1.6-2.8-3.5-1.7-1.9-5-5.9-7.3-8.8s-5.8-7.1-7.6-9.4c-4-4.9-7.1-9.2-11-15l-2.7-4.2-0.61 0.77c-1.1 1.3-2.1 5.3-1.8 7.1 0.12 0.88 0.28 2.1 0.34 2.6 0.055 0.57 0.22 1.3 0.36 1.6 0.32 0.74-0.25 0.78-0.84 0.074-2.6-3.1-11 11-12 20-0.74 5.9-0.21 11 1.5 15 0.46 1 1.1 2.6 1.4 3.5 0.46 1.3 0.83 1.7 1.9 2.2 1.7 0.78 1.9 0.7-3.2 2-8.3 2.2-10 4.7-12 15-2.1 11-1.3 19 2.5 25 2.5 3.8 1.8 4.6-1.3 1.3-2.2-2.4-5.2 0.36-7 6.5-0.21 0.71 0.53 1.1 10 6.1l11 5.3-1.5-2c-2.2-2.8-4.8-6.9-4.6-7.3 0.064-0.17 1.6 1.6 3.5 3.9 5.8 7.3 3.5 5.9 37 23 16 8.3 30 15 30 15 0.074 4e-3 20-13 45-29l45-29 0.81-1.8c0.44-1 1.9-3.1 3.3-4.6 6.2-7.2 8.4-13 6-15-1.1-1.2 0.28-3.4 3.2-5.2 8.1-5 14-13 15-20 1.2-6.6 1.4-11 0.65-18-0.19-1.8-0.15-2 0.5-2.2 0.41-0.11 1.3-1.2 2.1-2.5 3.8-6.4 4.7-9.8 4.4-18-0.25-7.4-0.31-7.5-2.8-6.5-0.64 0.27-0.63 0.23 0.055-0.74 0.39-0.55 1.2-1.9 1.7-3.1 0.56-1.1 1.7-3.3 2.6-4.8 4.4-7.6 5.8-16 4.7-28-0.59-6.3-0.68-6.7-1.4-6.7-1.2 0-0.018-3.3 3-8.4 2-3.4 3.5-12 3.1-18-0.13-2-0.14-2.9-0.45-3.2-0.074-0.055-0.17-0.064-0.29-0.037zm-197 136c0.064 9e-3 0.15 0.046 0.27 0.092 0.3 0.11 2.9 2.9 5.8 6.1 22 25 44 38 71 43 9.7 2 9.2 2.1-0.97 0.3-28-5.1-50-18-70-42-3.1-3.7-5.8-6.9-6.1-7.3-0.24-0.28-0.36-0.43-0.36-0.48 1e-3 -0.028 0.046-0.028 0.11-0.018z" fill="#9d02c1" stop-color="#000000" style="paint-order:stroke fill markers"/>
 </g>
 <g transform="matrix(.47 0 0 .47 -31 -14)" fill="#800000">
  <path d="m302 863c-0.62 0.24-11 7.4-11 7.8-0.26 0.42 1.6 19 1.9 19 0.13 0 2.3-2.2 4.8-4.9s4.6-4.9 4.6-4.9c0.028 0.028 3 6.4 6.6 14 3.6 7.7 6.7 14 6.9 14 0.16 0.16 3.4-2.6 7.4-6.2 3.9-3.6 7.2-6.5 7.3-6.5 0.1 0.018 3.7 7 7.9 16 4.2 8.6 7.8 16 7.9 16 0.19 0.32 11-7.7 16-12 0.9-0.74 1.7-1.3 1.7-1.2 0.055 0.074 4.3 8.1 9.5 18 5.1 9.8 9.4 18 9.5 18 0.12 0.13 5-2.9 11-6.7l11-7 0.56 1.1c0.4 0.78 17 30 19 33 0.32 0.56 0.36-0.17 0.59-14h-0.018l0.25-14-9.7-14c-5.3-7.5-9.9-14-10-14-0.52-0.53-1.3-0.29-11 3.8l-11 4.4-9.7-14c-5.3-8-9.8-15-9.9-15-0.13 0-4.1 2-8.8 4.4l-8.6 4.4-7.6-12c-4.2-6.8-7.8-13-8-13-0.36-0.39-1.6 0.25-7.6 3.8-4 2.4-7.3 4.3-7.4 4.3-0.094 0-3.1-5.1-6.7-11-4-6.8-6.7-11-7-11z" stop-color="#000000" style="paint-order:stroke fill markers"/>
  <path d="m568 846c-0.15 0-3.7 5.9-7.8 13-4.1 7.2-7.7 13-7.9 13-0.26 0.33-2.2-0.73-8.2-4.5-4.3-2.7-8.1-5.1-8.4-5.3-0.47-0.26-2 2.1-9.6 15-5 8.2-9.1 15-9.2 15-0.12 0-4.5-2.4-9.7-5.3s-9.5-5.3-9.6-5.2c-0.046 0.055-4.8 7.5-11 17l-11 16-2.3-1.1c-1.3-0.61-6.3-3.1-11-5.4-4.9-2.4-8.9-4.3-9-4.2-0.083 0.083-5.3 7.8-12 17l-11 17-0.21 8.3c-0.55 22-0.61 26-0.45 26 0.097 0 5.4-9.8 12-22l12-22 11 8.4c6.5 4.9 11 8.2 12 8.1 0.17-0.17 4.9-9.2 10-20 5.6-11 10-20 10-20 0.26-0.26 0.21-0.3 10 8.2 5 4.2 9.1 7.7 9.3 7.7 0.27 0 18-36 18-37 0-0.79 1.1 0.19 8.7 7.6 4.4 4.3 8.2 7.9 8.3 7.9 0.16-4e-3 3.1-6 6.4-13 3.4-7.3 6.9-15 7.9-17l1.7-3.7 6.3 6.8c3.5 3.8 6.4 6.8 6.5 6.7 0.34-0.33 0.92-24 0.59-24-0.43-0.56-13-9.3-13-9.3z" stop-color="#000000" style="paint-order:stroke fill markers"/>
  <path d="m188 660c-0.34-0.38 3.6 23 4.1 25 0.1 0.26 18 30 40 66l40 66 1-0.57c0.55-0.32 1.1-0.75 1.3-0.95 0.2-0.24-7.3-14-21-38-12-21-31-55-43-77s-22-40-23-40z" stop-color="#000000" style="paint-order:stroke fill markers"/>
  <path d="m389 583c-0.41-0.47-10 2.8-11 3.6-3.9 4.8-4.7 5.3-4.7 3 0-1.9-0.29-1.9-5-0.4l-4.1 1.3-0.43 1.4-0.41 1.4-0.25-1.1c-0.32-1.4 4.9-2.9-39 11-21 6.6-39 12-39 12-11 3.1-16 4.2-22 6.7-3.3 1.1-12 4.2-37 12-21 6.5-38 12-38 12 0 0.15 8.4 15 19 33 28 51 63 112 68 122 2.6 4.7 5.1 9.1 5.5 9.7l0.65 1.1 7.6-3.6c4.2-2 20-9.5 36-17 33-15 29-13 29-16 8e-3 -11 9-28 15-28h1.4l0.23-2.3c0.35-3.5 0.8-4.8 2.2-6.3l1.2-1.4-1.1-2c-15-27-18-40-14-56 2.6-11 12-23 19-23h1.3v-2.8c0-5.5 3.2-17 7.7-27 1.3-2.9 3.2-7.6 4.3-10 1.1-2.8 2.9-6.7 3.9-8.6l1.9-3.5-0.9-2.1c-1.3-3.1-2.6-6.9-4.4-13-0.89-2.9-1.7-5.4-1.8-5.6z" stop-color="#000000" style="paint-order:stroke fill markers"/>
  <path d="m479 513c-6.8 0.34-16 5.6-20 12-8 15 4.7 36 20 33 0.38-0.055 1.6-0.2 2.7-0.3 15-1.5 24-19 17-33-2.8-5.2-9.9-11-13-10-0.63 0.16-1.2-3e-3 -1.9-0.56-1.5-1.1-3.5-1.5-5.8-1.4z" stop-color="#000000" style="paint-order:stroke fill markers"/>
 </g>
 <g stroke-width=".47">
  <path d="m204 196c-0.19-0.03-0.38 0.035-0.56 0.22-0.79 0.75-0.89 2-0.15 2.8 0.36 0.4 1.1-0.16 1.4-1.1 0.31-0.89-0.11-1.8-0.65-1.9zm3 3.1c-1.1-0.089-2.2 0.27-2.9 1.1-4.7 5.6 0.75 15 7.5 13 2.5-0.93 3.8-3.4 3-5.6l-0.19-0.56-0.89 0.93c-2.6 2.8-6.1 2.3-7-0.89-1.2-3.1 0.56-6.1 3.2-5.6l0.65 0.11-0.25-0.38c-0.61-0.93-1.7-1.4-2.8-1.5zm9.8 1.8c-0.098-0.043-0.22 0.11-0.29 0.51-0.14 0.79-0.61 1.2-1.3 1.2-0.56 0-0.65 0.075-1.4 1-0.56 0.65-1.5-0.29-1.5-1.5-4e-3 -0.75-0.27-0.84-0.65-0.22-0.43 0.65-1 0.98-1.7 0.89-0.27-0.039-0.47-0.022-0.47 0.035 0 0.17 1.9 1.9 2.1 1.9 0.089 0 0.32 0.35 0.51 0.75 0.19 0.42 0.4 0.89 0.47 0.98 0.079 0.13 0.19 0.37 0.24 0.51 0.2 0.56 0.56-0.035 0.45-0.75l-0.098-0.65 0.3 0.38c0.27 0.33 0.32 0.34 0.51 0.12 0.17-0.2 0.16-0.3 8e-3 -0.51-0.23-0.28 0.013-0.32 0.28-0.051 0.14 0.14 0.24 0.14 0.42-0.017 0.32-0.26 0.31-0.56-8e-3 -0.89-0.34-0.34-0.2-0.65 0.36-0.79 1.2-0.25 2-1.2 2.1-2.2 4e-3 -0.41-0.07-0.65-0.17-0.7z" fill="#e5c04c" stop-color="#000000" style="paint-order:stroke fill markers"/>
  <path d="m212 194c-0.13 0.035-0.46 0.61-1 1.7-0.65 1.3-1.1 2-1.9 2.7l-0.98 0.98 0.56 0.37c0.98 0.65 1.6 1.7 1.5 2.6-0.013 0.24-0.07 0.26-0.35 0.11-1.9-1-3.9 0.56-3.9 3-4e-3 2.1 0.017 2.1 2.1 0.45 1.2-0.93 1.3-1.2 0.79-1.8-0.61-0.7-0.22-1.1 0.84-0.79 0.51 0.14 1.1-0.13 1.2-0.56 0.047-0.19 0.27-0.56 0.47-0.84 0.22-0.26 0.7-1.3 1.1-2.4 0.36-1 0.79-2.1 0.93-2.5l0.28-0.56-0.79-1.2c-0.43-0.65-0.79-1.3-0.79-1.3 0-0.1-0.022-0.15-0.065-0.14zm1.9 3-0.11 0.61c-0.061 0.35-0.45 1.4-0.84 2.3-0.93 2.1-1 2.8-0.47 3.5 0.23 0.27 0.42 0.61 0.42 0.79 0 0.21 0.12 0.12 0.4-0.3 0.41-0.61 0.65-0.7 1.7-0.79 0.51-0.039 0.61-0.13 0.93-0.84 0.45-0.89 0.65-1 1-0.65 0.89 0.89-0.15 2.8-1.8 3.5-0.45 0.15-0.75 0.33-0.65 0.39 0.26 0.16 0.21 0.98-0.065 1.2-0.21 0.17-0.19 0.25 0.14 0.65 2.5 3-1.1 7.9-6.1 7.9-3.1 0-7.5-3.3-7.5-5.6 0-0.12-0.75-0.22-2.3-0.28-2.5-0.1-3.8-0.34-5.1-0.98-0.51-0.22-0.98-0.4-1-0.4-0.043 0 0.33 0.56 0.79 1.3 3.1 4.4 6.5 13 7 16 0.079 0.75 0.29 2.1 0.47 3.1 0.035 0.18 0.4 0.75 0.79 1.3 3 3.9 3.1 8.9 0.24 14-0.47 0.7-0.51 0.75-0.51 2.8-4e-3 8.9-3.5 25-8.9 40-1.4 3.9-3.1 9.8-3.1 10 0 2.2 15 1.4 24-1.2 11-3.1 18-7.5 24-15 0.61-0.75 0.21-0.12-0.79 1.4-3.8 5.6-10 10-20 14-8.4 3.1-24 4.6-27 2.6l-0.51-0.31-0.4 1.6c-0.22 0.89-0.35 1.6-0.29 1.7 0.056 0.035 0.51 0.11 1.1 0.17 0.51 0.056 2.1 0.28 3.6 0.51 1.4 0.21 2.8 0.42 3.1 0.45 1.1 0.14 7.9 0.089 8.9-0.065v8e-3c9.3-1.1 20-4.6 24-7.9 5.6-4 12-14 9.3-14-2-0.75-4.7-3.9-6.1-7-0.61-1.3-1.4-4-1.9-7-0.79-4.4 9.3e-4 -14 1.4-17 0.23-0.51 0.42-0.98 0.42-0.98 0-0.026-0.65 0.3-1.5 0.75-2 1-5.6 2.4-8.9 3.7-1.6 0.56-4.1 1.5-5.6 2.2-4.4 2-7.9 3.2-8.4 3.1-0.16-0.017-0.56 0.03-0.84 0.12-0.31 0.084-0.51 0.089-0.42 0.017 0.23-0.21 1.6-0.98 1.8-0.93 0.065 8e-3 0.046-0.043 0.098-0.043-0.03-0.013-0.061-0.026-0.061-0.061 0-0.044 0.035-0.084 0.075-0.084 0.044 0 0.084 0.043 0.084 0.084 0 0.026-0.03 0.026-0.051 0.043 0.15-0.017 0.35-0.022 0.33-0.12-0.022-0.084 1.3-1.1 3-2.2 3-2 3.9-2.4 12-6.5 14-7 15-7.9 14-14-1.5-6.5-2.7-9.8-5.6-15-2.4-4.1-3.8-6.5-3.8-7 0.039-0.11-1.2-0.93-2.8-1.9-4.7-2.9-8.9-6.1-12-9.8zm-24 8.4c-0.013 0.1 0.26 0.41 0.79 1 1.6 1.9 6.5 3.3 9.8 2.7 0.46-0.093 0.47-0.12 0.35-0.75-0.07-0.36-0.13-1.2-0.14-1.8l-8e-3 -1.1-1.4 0.32c-1.9 0.43-6.5 0.33-8.4-0.17-0.61-0.19-0.89-0.29-0.93-0.19zm19-0.33c-0.21 0.013-0.41 0.22-0.7 0.65-0.51 0.75-2 1.9-2.4 1.9-0.41 0 0.026 0.98 0.75 1.6 0.93 0.89 2.5 1.1 3.8 0.47 1-0.51 1.1-0.79 0.75-1.7-0.075-0.18-0.18-0.61-0.23-0.93-0.056-0.34-0.26-0.75-0.44-0.89-0.19-0.15-0.47-0.42-0.65-0.61-0.37-0.37-0.61-0.56-0.79-0.56z" fill="#592b5c" stop-color="#000000" style="paint-order:stroke fill markers"/>
  <path d="m190 156c-2.6-0.13-5.1 0.25-8.9 1.1-1.4 0.35-2.7 0.7-3 0.75-0.44 0.098-0.41 0.12 0.42 0.29 0.98 0.21 1.9 0.7 1.6 0.89-0.084 0.084-0.37 0.084-0.7 0-2.5-0.65-6.5-0.2-8.9 0.93-1.5 0.79-1.6 0.65 1.8 2.4 6.1 3.1 6.5 3.2 7.9 3.4 3.6 0.3 7.9 0.2 11-0.23l2.5-0.4 1.9-1.9c1.1-1.1 2.3-2.5 2.8-3.3l0.98-1.4-1.4-0.51c-3-1.2-5.6-1.8-8.4-2z" fill="#d06994" stop-color="#000000" style="paint-order:stroke fill markers"/>
  <path d="m258 144c-1.4-0.089-2.7-0.051-4.1 0.14l-0.79 0.098-1.2 2.9c-2.6 6.5-6.5 13-12 20l-1.2 1.4 0.51 1.4c1.9 5.1 6.1 11 13 19 2.3 2.8 2.2 3.1-0.51 1.2-0.56-0.38-1.4-0.89-1.9-1.1-2.5-1.1-11-7.9-14-11-1.2-1.2-2.2-2.1-2.2-2.1-0.98 0.03-1.2-0.51 4.5 11 2.4 4.7 4.7 8.9 6.5 12 0.89 1.2 0.45 1.3 3.1-0.79 8.9-7 21-21 26-30 0.79-1.4 1.8-3.1 2.2-3.8l0.79-1.3-0.098-1.6c-0.56-8.9-8.9-16-18-16zm-57 28c-0.14 0.013-0.37 0.19-0.79 0.51l-0.39 0.3 0.28 1c0.42 1.5 1.2 2.8 2.2 3.7 1.3 1.2 1.3 1.2 0.061-2-0.56-1.5-1.1-2.9-1.1-3.2-0.061-0.28-0.11-0.42-0.25-0.41zm-86 6.1-0.19 1.5c-0.42 3.4-1.7 7-4.7 12-3.9 7-7.5 11-12 13l-1.3 0.61 1.1 0.65c3.3 1.9 5.6 2.8 8.9 3.6 5.1 1.3 16 5.6 19 7.5 8.9 6.1 12 9.8 23 24 3.4 4.7 6.5 8.4 6.5 8.4 0.03-0.089-0.14-1.2-0.36-2.4-0.7-3.8-1.2-5.6-2.8-11-0.47-1.5-1.4-4.7-2-7-0.93-3.7-1.4-5.6-3.4-11-3.8-11-4.3-12-7.9-17-1.3-1.9-2.8-4.2-3.4-5.1-1.6-2.8-3-4.7-3.8-5.6-0.42-0.45-0.98-1.2-1.2-1.7-0.41-0.79-0.51-0.89-1.2-1-2.4-0.61-10-6.5-13-9.8zm55 13c-0.07 0.065 1.5 4.7 2.7 7.9l1.1 3 0.89 0.18c4.7 0.98 9.3 4.2 13 9.3 4.3 5.6 5.6 7.9 7.5 12 1.2 2.3 1.7 3.2 2 3.2 0.022 0 4e-3 -0.27-0.043-0.61-0.79-5.6-4.5-13-8.9-18-0.61-0.7-1.8-2.1-2.7-3.1-1.1-1.3-1.8-2-2.4-2.4-0.75-0.45-3.2-2.6-5.1-4.5-0.89-0.84-1.5-1.9-1.4-2.4 0.079-0.32-0.14-0.47-2.2-1.6-1.3-0.65-2.8-1.5-3.5-1.9-0.65-0.39-1.2-0.7-1.3-0.65zm4.6 14c-0.013 0.035 0.013 0.11 0.051 0.2 0.23 0.61 1.1 5.1 1.4 7.5 1.6 12 0.32 21-4.7 33-1.2 2.8-4.4 6.5-7.5 8.9l-1.3 0.89-0.42 1.3c-0.23 0.7-0.51 1.5-0.65 1.8-0.12 0.27-0.4 0.93-0.65 1.5-0.65 1.5-1.8 3.4-2.8 4.5-0.61 0.65-0.84 1.1-0.84 1.4 0 1-0.65 3-1.7 4.7-0.56 1.1-1.4 2.8-1.8 3.9-0.42 1.1-1.4 3.3-2.1 5.1-5.1 12-4.7 16 2.5 26 0.75 1.1 1.8 2.6 2.3 3.4 0.47 0.75 1.4 2.1 2.1 3 1.9 2.6 2.6 4.2 1.2 2.9-0.61-0.56-0.75-0.61-0.65-0.34 0.21 0.65-0.32 0.39-2.2-1.2-1.2-0.98-7-7-6.5-6.5 0.13 0.098 1.3 0.98 2.6 2 1.3 0.98 2.3 1.7 2.3 1.7 0-0.14-0.98-1.4-2.8-3.5-4.1-4.6-5.6-7.5-7-11l-0.35-1.3-2.1 2.1c-7 7.5-7 14 0.043 28 3.8 7.5 5.6 9.8 12 19 10 13 24 25 34 30 0.89 0.45 2 1.1 2.4 1.4 0.98 0.65 0.98 0.7 0.65 0.16-0.15-0.23-0.51-0.84-0.84-1.4-0.31-0.56-1.2-2-2-3.2-4.2-6.5-8.9-21-10-32-1.3-12-0.75-16 4.1-35 3.3-13 3.6-14 6.1-21 1.6-4.7 2.2-6.5 4.3-14 2.5-9.3 3.5-15 4-22l0.11-1.4-0.93 0.46c-4.6 2.2-11 0.7-14-3.4-5.6-7.9-0.047-18 9.3-18 0.89 0.039 1.6 0.047 1.6 0.035 0-0.75-3.3-5.6-5.6-8.9-5.6-7-7.5-8.4-12-11-1.8-0.84-2.2-1.1-2.3-0.98zm57 6.1 1 1c0.56 0.56 1.2 1.2 1.3 1.4 0.36 0.56 0.37 0.56 0.26-0.51l-0.093-0.84-1.3-0.51zm3.6 1.4c-0.27-0.03-0.41 0.051-0.33 0.27 0.061 0.15 0.26 0.98 0.43 1.9 0.26 1.3 0.51 1.9 1.2 3.1 1.9 3.3 3.3 7.9 4.7 14 0.65 3.1 1.1 4.7 1.2 5.1 0.13 0.33 0.61-2.4 0.84-4.7 0.65-6.5-1.3-14-4.7-18-0.65-0.84-2.6-1.9-3.5-1.9zm5.1 28c-0.047-0.14-0.56 0.21-1.4 0.98-0.75 0.65-1.9 1.6-2.6 2.1-3.7 2.8-4.7 14-2.3 23 0.89 3.6 2.5 6.1 5.1 8.4 0.61 0.47 1.2 1 1.3 1.3 0.14 0.21 0.56 0.56 0.89 0.79 2.9 1.9 0.17 8.9-6.1 15l-1.3 1.3 0.22 0.65c1.5 4.2 0.2 12-2.4 14-0.61 0.51-0.65 0.89-0.035 0.75 0.23-0.056 1.1 0.23 2.5 0.79 6.1 2.5 12 3.7 21 4.7 3.4 0.37 10 0.33 14-0.075h8e-3c6.1-0.79 12-2.3 16-4.5 2.4-1.2 2.9-1.5 9.3-6.5l1.5-1.1-0.61-0.098c-3.1-0.51-13-4.6-24-10-14-7-24-21-28-42-1.3-5.6-2.1-8.9-2.2-9.8z" fill="#6d173a" stop-color="#000000" style="paint-order:stroke fill markers"/>
  <path d="m199 140c-0.31-0.065-0.84 0.39-2.1 1.3-2.1 1.5-5.1 3.5-6.5 4.3-0.89 0.51-8.4 3.7-10 4.3-0.61 0.22-2.5 0.93-4.1 1.5-1.6 0.65-4.3 1.6-6.1 2.2-1.7 0.61-3 1.1-3.1 1.2-0.056 0.056 1.8 1.6 3.1 2.5 1 0.75 1.9 0.79 4.4 0.21 2.3-0.56 3.6-0.93 5.6-1.7 0.79-0.35 3.4-1.3 5.6-2.1 12-3.9 15-6.5 14-12-0.23-1.2-0.3-1.8-0.61-1.8zm-1.4 11c-0.56 0.056-1.2 0.18-1.8 0.38-1.2 0.38-1.3 0.44-1.3 0.84 0 0.35 0.39 2.6 0.56 3.3 0.026 0.098 0.39 0.26 0.79 0.38 1.1 0.28 2.9 1.2 3.5 1.7 0.27 0.22 0.51 0.42 0.51 0.42 0.013 3e-3 0.18-0.24 0.36-0.51 0.56-0.93 0.03-1.9-1.8-3.3l-0.47-0.35 0.47 0.18c0.75 0.26 1.5 0.89 2 1.7l0.44 0.7 0.84-1.9c0.46-1.1 0.79-2 0.79-2-1.7-1.2-3.2-1.7-4.7-1.5zm-31 9.8c-0.18 0.089-0.24 0.28-0.24 0.56 0 0.56 8.4 3.6 9.8 3.6 0.13 2e-3 -1.2-0.7-2.9-1.6-4.4-2.2-6.1-2.9-6.5-2.6z" fill="#fcf8fc" stop-color="#000000" style="paint-order:stroke fill markers"/>
  <path d="m184 122c-0.75 0.051-1.5 0.16-2.3 0.33-1.1 0.23-2.1 0.42-2.3 0.42-1.9 0-6.1 6.5-6.1 9.8 8e-3 6.1 4.4 9.3 11 7.9 8.4-1.3 14-7.5 12-12-2.2-4.4-7-7-12-6.5z" fill="#800000" stop-color="#000000" style="paint-order:stroke fill markers"/>
 </g>
 <g transform="matrix(.47 0 0 .47 -31 -14)">
  <path d="m477 244c-3.5 0.19-7.2 5.5-9.7 14l-0.99 3.6 0.74 4.3c2.4 14 9.4 21 17 17 8.6-4.4 6.4-28-3.5-38-1.1-1.1-2.2-1.6-3.4-1.6zm-82 19-5.8 0.018c-11 0.018-14 1.8-15 11-2.1 19 13 37 25 32 6.8-3.1 10-14 7.5-24-2.6-9.8-5-14-11-17z" fill="#3b6cb5" stop-color="#000000" style="paint-order:stroke fill markers"/>
  <path d="m487 197-2 0.21c-1.1 0.12-2.3 0.38-2.7 0.59s-2.7 0.91-5 1.5c-17 4.5-32 17-29 24 1.4 3.7 3 3.5 7.6-0.9 12-11 14-12 37-17 0.93-0.18 0.18-1.4-4-6.4zm-97 27c-2.1-0.11-4.2-0.083-6.5 0.11-12 1-17 2.2-24 5.2-3 1.4-2.8 1.1-3.3 6.4-0.68 7.5-0.8 7.2 3.2 5.8 12-4.4 21-6.1 35-6.6 11-0.4 14-2.1 9.6-6-3.2-2.9-8.2-4.5-14-4.9z" fill="#533e58" stop-color="#000000" style="paint-order:stroke fill markers"/>
  <path d="m481 179-3.2 0.23c-4.5 0.33-4.5 0.47-1.1 2.2 3.6 1.9 6.5 4.7 11 11l3.3 4.3 2.2 0.41c9.2 1.8 13 7.8 6.7 9.9l-1.9 0.61 1.7 3.1c0.93 1.7 3 5.7 4.6 8.8l2.9 5.7 2.5 0.74c4.9 1.4 8.1 1.7 12 1 2.7-0.47 2.8-0.22-1-5.9-5.2-7.7-10-13-18-22-4.3-4.3-8.8-8.9-10-10-1.3-1.4-4.5-4.2-7-6.2zm12 19c-0.33 0.33 4.9 7.7 5.4 7.6 0.3-0.083 1-0.24 1.6-0.36 4-0.83 3.9-2-0.43-4.6-1.7-1-6.3-2.9-6.5-2.6zm-139 29c-1.3-1.3-24 24-30 33-0.62 0.97 0.15 4.3 3.3 14 1.7 5.3 2 6.5 3 15 1.1 8.8 1.3 16 1.4 37 0.074 29 0.71 38 3.7 56 4.8 28 10 44 16 52 4.7 6.2 8.5 12 10 15 0.81 1.4 4 6.4 7 11 18 28 32 63 36 88 1.7 12 1.8 38 0.055 43-0.4 1.1-0.72 2.1-0.72 2.2 4e-3 0.44 2.6-4 3.6-6.3 6.4-14 14-46 15-65 1.3-23-1-36-9.9-57-1.7-3.9-3.5-8.3-4.2-9.9-3-7.3-8.8-19-13-26-1.3-2.3-0.42-1.7 1.3 0.81 0.85 1.2 4.2 6 7.4 11 25 35 30 75 14 125-1.8 5.7-1.7 5.8 2.3 1.3 6.5-7.3 7.2-8.5 12-23 8-23 9.4-36 6.5-59-1.4-11-2.5-15-8.5-32-4.4-12-5.3-15-7.1-18l-1.9-3.9-3.8-3c-10-8-21-20-31-35-3.8-5.7-6.8-11-14-24-3.3-6.3-7.2-14-9.8-18-2.5-4.7-1-2.5 4.2 6.2 7.2 12 12 19 16 26 2.2 3.1 5.5 7.8 7.4 10 13 18 24 31 31 34 1.8 0.86 3 1.7 4.3 3.2 5.1 5.6 33 20 47 25 7.3 2.3 15 4.2 12 2.8-11-4.7-19-9.4-30-18-17-13-20-16-31-28-39-42-57-72-69-114-0.055-0.2-2.5-1.9-5.5-3.7-8.1-5.1-13-9.4-13-11 0-0.24-0.11-0.71-0.23-1.1-0.22-0.6-0.19-0.59 0.47-0.018 0.86 0.76 5.2-1.1 10-4.5l3.2-2.1-0.27-3.3c-0.36-4.5-0.26-22 0.14-25 0.3-2.5 0.27-2.7-0.34-2.9-5.6-1.8-4-8.7 3.1-14 1.2-0.86 2.8-3.7 2.3-4.2zm173 3.2c-0.074 0.17-0.11 0.52-0.11 1-2.8e-4 1.5-1.1 5.5-3.8 14l-2 6.6 1.5 3.7c0.8 2 2.3 6.1 3.4 9.2 1.7 4.7 2.1 5.5 2.7 5.4 0.61-0.074 0.62 0.037 0.32 1.1-0.29 1.1-0.083 1.9 1.6 6.9 7.2 22 12 39 12 44l0.13 3.3-0.3-3.1c-0.17-1.7-0.64-4.3-1-5.8-1.9-7.4-13-42-13-42-0.95 0.028-4.5 7.4-4.1 8.6 0.76 2.2 4 9.7 6.4 15 6.3 13 7.8 22 5.7 36-2.4 16-10 34-20 47l-1.7 2.2 0.79 2.3c1 2.9 3 7.3 7.5 17 6.6 14 9.9 20 9.5 20-0.69-0.74-8.3-13-9.9-16-3.2-6.1-7.1-16-8.5-21-0.093-0.33-0.74 0.19-1.9 1.5-0.97 1.1-3.5 3.8-5.5 5.9l-3.8 3.9 0.97 2.8c5.3 15 18 40 26 50 15 19 49 37 81 43 0.47 0.093-1.3-0.93-3.9-2.3-26-13-46-36-53-58-0.51-1.7-2.1-6.5-3.5-11-3.3-9.7-3.1-9.8 0.72-0.47 5 12 8.1 18 14 28 14 22 44 44 61 44l2.2 0.018-3.1-1.9c-30-19-54-52-64-88-0.92-3.2-1.6-4.8-2.4-5.8-14-18-18-26-20-38-1.1-6-1.2-7.9-0.16-4 4 15 23 43 40 58 2.6 2.3 19 16 22 18 0.28 0.2-0.46-0.7-1.7-2-13-14-20-26-28-45-7.7-20-9.5-27-15-56-4.4-25-4.6-26-7.7-39-6.3-26-12-42-18-55-1.7-3.5-2.3-4.6-2.5-4.1zm-175 3.8c-0.083-0.35-0.54 0.1-1.4 1.1-2.7 3-3.1 6.5-0.75 6.5 0.19 4e-3 0.82-1.8 1.4-3.9 0.58-2.2 0.86-3.3 0.77-3.7zm-29 28c-0.8 0.028-13 21-12 21 0.093 0 1.6-0.49 3.4-1.1 3.8-1.3 7.2-1.5 9.2-0.54l1.2 0.61-0.2-6.3c-0.2-6.4-0.87-14-1.2-14zm-9.5 93c-0.028 0 0.38 1.7 0.91 3.7 3.5 13 2.4 30-2.1 34l-1.3 1.3 0.81 1.4c0.45 0.79 0.92 2.1 1 2.9 0.25 1.7 0.45 1.7 3.4 0.13 7.8-4.2 13-15 12-23-0.34-2.5-0.95-7.5-1.3-11l-0.74-6.6-3.6-0.074c-3.4-0.083-3.8-0.17-6.3-1.4-1.5-0.7-2.7-1.3-2.8-1.3zm16 28c-0.037 0.16-9e-3 0.63 0.11 1.5 0.45 3.2-1.1 6.9-4.4 11l-1.3 1.4 1.3 2.3c2.3 4.2 2.5 9.9 0.54 14-0.4 0.94-0.68 1.8-0.61 1.8 0.074 0.055 1.4 1.1 3 2.3s4.8 3.7 7.2 5.5c5.1 4 5 3.9 4 1.2-0.43-1.2-1-3.8-1.3-5.7-0.31-2-1.2-5.8-1.9-8.4-1.6-5.6-4.1-16-5.1-22-0.55-3-1.2-5.2-1.3-4.7zm-15 110c-0.53 0.23-0.092 1.4 0.61 3.8 4.7 16 12 29 25 44 14 16 16 19 20 28 2.9 5.6 3.9 8.3 4.3 11 0.59 5.6 0.82 3.6 0.68-6-0.093-6.2-0.34-12-0.66-14-1.2-9.3-1.9-14-2.6-16-0.88-2.8-0.88-2.9 0.2-1 0.49 0.85 1.5 2.5 2.2 3.8 1.7 2.8 2.7 6.1 3.1 10 0.33 2.9 0.55 3.6 1.5 5 2.2 3.2 6 14 6.8 20 0.49 3.4 0.5 3.4 2.6-1.5 1.9-4.5 2.7-7.3 3.5-13l0.72-4.7-3.3-8.3c-6-15-18-31-30-41-13-11-21-16-29-19-3.1-1.3-4.6-2-5.2-1.8zm70 64 1.2 2.9c3.4 7.8 6 14 6.3 16 0.2 0.91 0.66 2.2 1 2.9 0.9 1.8 4.3 13 4.8 15 0.36 2 0.33 2.5-0.32 4.9-0.4 1.5-0.74 2.8-0.74 2.9 4e-3 0.33 1.1-1.5 2.2-3.6 2.6-5.2 2.9-12 1-23l-0.91-5.4-3.8-3.2c-2.1-1.8-5.4-4.7-7.3-6.6zm138-299c-0.59 0-0.98 12-0.48 15l0.2 1.3 1.3-0.74c0.68-0.41 1.9-1.1 2.7-1.6 0.8-0.46 1.5-0.87 1.5-0.91 0-0.17-2.2-6.1-3.5-9.4-0.75-1.9-1.5-3.5-1.6-3.5z" fill="#c78bda" stop-color="#000000" style="paint-order:stroke fill markers"/>
  <path d="m660 165c-2 0.096-4 0.51-6 1.3-3.8 1.4-2.4 11 3.2 23 3.9 8.3 6.6 17 7.5 23 0.31 2.3 5.7 13 10 21 1.4 2.3 3 5 3.6 6l1 1.9 2.7 0.75c5 1.4 11 3.8 16 6.8 0.018 8e-3 -0.75-2-1.7-4.5-2.9-7.8-4.5-16-7.9-38-3.9-26-15-42-29-41zm-31 4.3c-1.1-0.13-2.2-0.093-3.3 0.092-7.8 1.3-8.5 2-8.5 9.6 4e-3 7.2 0.22 8.3 4.3 20 9.4 28 12 36 12 42 0.028 1.7 0.55 2.3 12 12 6.9 5.9 12 11 16 15 1.8 2.2 3.8 4.6 4.4 5.3 2.2 2.6 4.3 7.2 4.3 9.2l-0.018 1.8-0.59-1.1c-1.7-3-17-19-23-23-6.5-5.1-12-9.7-17-14-10-8.5-27-18-36-20-10-2.5-18 3.3-14 11 0.59 1.2 0.85 1.5 9.3 8.5 10 8.7 18 18 22 26l2.1 4.1 0.32 4.3c0.18 2.3 0.46 4.7 0.65 5.3 0.42 1.3 0.42 6.5-0.018 8.3-1.6 6.7-0.44 16 1.9 15 3.5-1.5 11-1.1 20 1.1 12 2.7 15 4.4 25 12 3.3 2.5 5.1 3.6 5.7 3.6 4.1 0 13-8.6 17-17 1.1-2.1 2-3.8 2-3.8 0.22 0.3-1.4 9.2-1.9 11-1.5 4.6-6.1 9.9-11 12-2.6 1.4-2.7 0.99 1 3.8 6.2 4.6 13 11 15 14 1.2 1.8 0.81 1.8 4.2 0 6.5-3.4 12-11 17-23 4.2-11 7.1-27 5.5-32-0.28-0.93-0.81-3.2-1.2-5.1-0.69-3.5-2.2-8.5-2.7-9.2-0.16-0.21-0.42-0.9-0.56-1.6-2.7-13-17-24-34-27-7.8-1.4-24-1.3-28 0.2-1.1 0.41-1 0.037 0.21-1.3 2.4-2.7 9.6-5.1 17-5.6 2.7-0.21 5-0.44 5.1-0.48 0.064-0.046-1.1-2.2-2.7-4.8-3.7-6.3-12-23-15-30-11-26-17-35-25-36zm-452 57c-3-0.4-7.7 1.8-11 5.7-5.1 5.6-9.4 16-11 26-3.9 22 11 61 28 72 1.7 1.2 3.8 2.7 4.5 3.4l1.4 1.3 2.7-2.1c3.3-2.6 6.3-4 12-5.6 2.3-0.67 5.5-1.7 7.1-2.2 4-1.4 3.8-0.98-1.4 2.2-2.5 1.5-5.5 3.8-6.9 5.1s-3.7 3.2-5 4.2c-20 15-36 45-36 66 0.055 9-1.6 8.9-3.5-0.16-1.3-6.1 0.27-18 3.3-26 0.84-2.1 0.86-2-0.84-3.9-0.81-0.91-2.1-2.8-2.9-4.3-2.2-4.1-5.4-8-7.2-9.1-0.88-0.51-3.1-1.9-5-3.1-5.5-3.5-14-7.7-20-10-9.2-3.6-13-5.5-21-9.6-22-11-26-12-27-2.1-1.1 20 21 45 49 58 16 7.1 27 13 28 16 0.5 0.88 1.8 2.5 2.8 3.7 2 2.1 7.6 8.7 11 13 10 12 34 30 46 33 6.3 1.7 17 2.1 24 0.84 12-2.4 21-10 23-21 0.95-4.6 1.2-4.2-2.1-3.3-8.2 2.4-21-6e-3 -25-4.7-1.8-2.1-1.8-2.5 0.13-1.2 11 7.3 33 2.2 43-9.7 11-13 12-26 6.1-53-4.9-22-4.8-35 0.018-50 2.7-8 6.6-15 9.7-18 3.5-3-0.44-11-5.5-11-25 0-52 52-56 106-0.26 3.7-0.51 3.7-1.3-0.037-2.5-12 0.62-34 8.1-56 1.3-4 2.4-7.3 2.3-7.4-0.93-0.69-7.5-4.2-8.6-4.6-5.2-1.8-14-9.6-18-16-0.51-0.82-1.7-2.4-2.7-3.6-0.99-1.1-1.8-2.2-1.8-2.4s-0.94-1.9-2.1-3.8c-3.7-6.2-15-37-18-50-2.1-8.8-4.1-15-6.5-20-1-2-2.5-4-2.5-3.3-4e-3 0.29-0.11 0.32-0.27 0.092-0.52-0.75-1.3-1.2-2.3-1.3zm-72 38c-7.7-8e-3 -12 7.7-10 20 1.3 12 17 34 31 44 1.9 1.4 4.6 3.3 5.8 4.3 12 8.7 29 27 31 35l0.57 1.7 2.7-5.2c1.5-2.9 4-7.2 5.5-9.5 3.1-4.7 7-9.7 11-14 1.3-1.4 2.3-2.5 2.2-2.6-0.074-0.055-0.75-0.28-1.5-0.5-7.1-2.1-18-15-25-30l-2.3-4.7-3.4-2.5c-2.6-2-4.3-3.5-7.4-7.3-18-21-29-29-40-29zm512 51-6 0.055-0.9 1.1c-4.3 5.1-5.8 12-4 18l0.66 2.3 1.1-1.3c3.3-3.9 14-4.2 25-0.84 15 4.7 29 21 31 35 0.23 1.6 0.52 2.9 0.63 2.9s3-1.4 6.4-3.1v-0.018c22-11 20-18-10-39-1.5-1-4-2.9-5.5-4.1-9.7-7.5-23-11-39-11zm-326 70 0.13 2c0.79 12 5e-3 18-3.3 24-4.9 9.8-12 17-22 21-3.1 1.3-2.9 1.1-2.1 2.3 4.9 7-5.7 25-17 29-2.1 0.75-2.1 0.78 0.14 2.3 7.3 4.9 13 5.8 21 3.4v-0.018c13-3.8 21-13 30-31 7.1-15 8.4-20 8-31-0.25-8-0.47-9.2-2.3-12-0.83-1.2-2.2-3.2-3.1-4.6-0.99-1.5-2.1-2.6-2.8-3-1.4-0.7-5.3-2.2-6.5-2.5zm404-183c-0.54 0.54 4.2 28 5.8 34 3 11 5.6 18 7.8 21 2.5 3 4.3 5.5 5.6 8.2l0.97 2 0.27-3.9c0.14-2.1 0.29-9.4 0.34-16h-0.018l0.11-12-0.95-4.5c-2.5-12-5.5-18-12-24-2.1-2-7.8-5.3-8.3-4.8z" fill="#977dbd" stop-color="#000000" style="paint-order:stroke fill markers"/>
  <path d="m390 49c-2.4-0.11-8.9 0.72-14 1.9-14 3.1-14 3.1-19 5.6-11 4.9-15 7.2-16 10-1.1 3.4-1.8 4.5-5.8 10-2 2.8-3.7 5.1-3.7 5.1 2.8e-4 0.055 2.5 0.1 5.6 0.13 8.4 0.055 14 1.9 20 6.2 2.1 1.6 2.3 1.7 2.9 1.1 0.58-0.53 0.58-0.52 0.14 0.055-0.42 0.55-0.24 0.83 1.6 2.7 2.4 2.4 1.9 2.4 3.2 0.21 1.8-3.2 4.9-5.2 7.8-5l1.5 0.13 0.018-3.1c4e-3 -6.2 1.2-11 3.6-16 3.9-7.8 9.5-15 14-19 0.35-0.26 0.028-0.41-0.75-0.45zm128 23c-8.4-0.4-19 1.7-37 6.2-13 3.3-15 4-25 8.4-24 11-26 12-38 19-15 9.7-26 18-54 42-9.7 8.4-36 35-49 48-4.1 4.5-8.8 9.6-10 11-1.6 1.7-5.8 6.5-9.4 11-12 14-18 20-37 39l-22 22c-3.3 3.7-19 20-21 23l-1.5 1.6 1.5 2c2.2 3.1 5.2 6.6 6.9 8.3l1.5 1.5 6.4-6.5c3.5-3.6 9.7-9.5 14-13 8.8-7.8 27-26 39-39 16-17 22-24 29-33 22-26 49-53 68-68 68-55 111-69 147-48 23 13 34 32 31 55-0.31 2.5-0.73 6.2-0.93 8-0.76 7-3.5 17-6.5 24-4.5 10-14 26-18 29l-1.4 1.2 2.4 4.7c1.3 2.6 3.1 6.6 4 8.8l1.7 4.1 0.77-0.97c13-16 29-48 33-66 3.9-19 3.4-28-3.1-53-3.9-15-16-32-30-42-7.6-5.7-13-8.6-22-9zm-24 29c-18 0.46-39 7.2-60 20-43 26-80 58-123 108-24 27-50 54-66 69-4.4 3.9-10 9.1-13 11-2.5 2.4-5.2 4.8-5.9 5.3l-1.3 0.97 1.4 1.3c1.9 1.8 3.5 2.7 5.9 3.5 2 0.7 7.3 3.7 8.1 4.6 0.24 0.28 0.47 0.52 0.52 0.52 0.055 0 1.6-3.1 3.5-6.9 16-33 46-48 54-26l0.43 1.2 0.7-1.1c0.39-0.63 1.3-2.7 2-4.6 8.8-24 30-52 54-71 1.3-1 2.5-2.1 2.7-2.5 0.19-0.36 0.49-0.56 0.66-0.45s1.1-0.4 2.1-1.1c32-23 89-41 131-41l11 0.037 13 2.1c28 4.7 28 5 4.1 3.1-6.2-0.48-10-0.65-13-0.5-1.7 0.12-7.5 0.51-13 0.86-5.4 0.35-10 0.71-10 0.79-0.083 0.083 3.3 2 7.4 4.2 15 8 29 22 39 40 1.8 3.1 1.4 3.3 5-2 12-18 19-34 21-49 0.28-2.4 0.75-6.1 1.1-8.3 3.3-23-7.8-41-34-56-8.1-4.4-18-6.4-29-6.1zm-117 3.5c-0.31 0.092-0.8 0.46-1.5 1.1l-1.3 1.2 0.95 1.7c2.6 4.5 3.1 6 4.4 13l0.3 1.8 2.6-1.7c1.4-0.9 3.2-2 3.9-2.4l1.3-0.79-2-1.5c-3.4-2.5-8.3-9.8-8.3-12 2e-3 -0.45-0.13-0.63-0.45-0.54zm-92 23c-0.24 0.028-0.83 0.47-2 1.4-3.4 2.6-12 8.9-19 14-14 9.4-19 14-24 24-11 22-12 48-3.9 76 2.3 7.8 2.9 9.6 3.1 9.3 0.13-0.15 1.7-4.1 3.4-8.8 4.9-13 7.4-19 10-26 1.5-3.1 4.1-8.6 5.8-12 3.6-7.6 8.5-19 11-26 2.8-7.2 7-18 7-19 0-0.16-1.6 0.23-3.6 0.86-8.1 2.6-15 2.9-18 0.88-1.6-0.91-1.3-1.7 0.29-0.93 4.7 2.3 20-1.2 25-5.6 1.1-1.1 2.6-2.3 3.1-2.7l1.1-0.75-0.18-6.8c-0.16-6.5 0.34-13 1.3-17 0.18-0.8 0.28-1.2 0.037-1.2zm6.8 49c-0.13-0.15-0.83 0.13-1.6 0.63-0.73 0.5-2 1.1-2.7 1.3-1.6 0.44-2.8 2.7-7 13-1.6 3.9-5.3 12-11 23-4.6 9.2-8.4 17-8.4 17 0 0.47-0.21 0.69 4.5-4.9 4.7-5.7 21-24 29-32l6.2-6.5-3-3.1c-1.6-1.7-3.8-4.2-4.7-5.5-0.91-1.3-1.8-2.5-1.9-2.7zm11 12-1.7 1.6c-9 8.8-39 43-43 48-0.69 1-5.9 12-7.1 16l-0.59 1.5 1.7-1.4c0.9-0.76 5.8-5.6 11-11 9.8-9.9 18-18 25-27 2.6-3 5.9-6.8 7.3-8.4s5.2-5.7 8.4-9.2c6.5-7 6.5-6.9 5.2-6.9s-4.5-1.2-5.6-2zm-8.2 116c0.29-1.4-2.8 3.5-4.5 7-7.3 15-8 30-2.6 54 2.1 9.3 1.6 8.5 5.6 8.5 5.1-0.055 8.5-1.2 14-4.4 2.3-1.4 2.3-1.4 1-0.3-4.1 3.6-8.4 5.2-14 5.2-2.2 0-4 0.083-4 0.2 0 0.3 0.69 5.8 0.88 7.1 0.16 1 0.25 1.1 1.5 0.93 0.7-0.083 2.3 0.14 3.7 0.5 3.1 0.84 2.7 0.84 5.7 0.018 1.4-0.39 4.1-1.5 6-2.5 1.9-0.98 3.5-1.8 3.5-1.8 0.11-0.028-0.88-8.4-1.3-11-0.19-1.2-1-5.2-1.9-8.9-1.2-5.2-1.5-7-1.3-8.3 0.21-1.6 0.15-1.7-2-5-2.8-4.2-4.6-8.1-6.5-14l-1.5-4.5-0.56 2c-0.84 2.9-3.6 14-3.6 15s-0.58 0.51-1.1-0.93c-0.85-2.6-0.54-10 0.66-16 1.7-8.9 2.4-13 2.6-18 0.12-2.4 0.29-4.7 0.4-5.1z" fill="#60157c" stop-color="#000000" style="paint-order:stroke fill markers"/>
 </g>
</svg>
