<?xml version="1.0" encoding="UTF-8" standalone="no"?>
<!-- Created with Inkscape (http://www.inkscape.org/) -->

<svg
   width="94.614998mm"
   height="130.85201mm"
   version="1.1"
   viewBox="0 0 357.7348 494.77038"
   id="svg56"
   sodipodi:docname="character-opt.svg"
   xml:space="preserve"
   inkscape:version="1.2.2 (b0a8486541, 2022-12-01)"
   xmlns:inkscape="http://www.inkscape.org/namespaces/inkscape"
   xmlns:sodipodi="http://sodipodi.sourceforge.net/DTD/sodipodi-0.dtd"
   xmlns="http://www.w3.org/2000/svg"
   xmlns:svg="http://www.w3.org/2000/svg"><defs
     id="defs60" /><sodipodi:namedview
     id="namedview58"
     pagecolor="#505050"
     bordercolor="#eeeeee"
     borderopacity="1"
     inkscape:showpageshadow="0"
     inkscape:pageopacity="0"
     inkscape:pagecheckerboard="0"
     inkscape:deskcolor="#d1d1d1"
     inkscape:document-units="mm"
     showgrid="false"
     inkscape:zoom="1.6819304"
     inkscape:cx="205.716"
     inkscape:cy="193.8249"
     inkscape:window-width="1680"
     inkscape:window-height="999"
     inkscape:window-x="0"
     inkscape:window-y="27"
     inkscape:window-maximized="1"
     inkscape:current-layer="svg56" /><path
     id="path555"
     style="fill:#ac2444;stroke-width:0.15988;fill-opacity:0.56078434"
     d="m 62.190974,202.11106 c 9.50116,-10.80612 14.504163,-3.47005 14.175979,2.26146 -4.776075,12.47069 -8.970362,27.64171 -7.59252,37.31882 -7.673553,-10.61936 -11.895973,-26.144 -6.583459,-39.58028 z m -46.058375,59.59721 c -2.434309,7.30175 -1.148427,30.5121 -2.094427,29.19297 -10.1104259,-25.60896 -9.1262196,-57.88919 -1.84568,-84.38048 3.77748,-11.65739 7.87487,-23.62363 15.80724,-33.1819 4.785993,-5.50227 21.920072,-4.07846 17.592148,16.05242 -10.24709,23.23002 -20.827703,60.60497 -22.285433,85.72635 -0.69266,8.96882 1.22026,24.00093 2.541302,30.57273 -9.00223,-10.7677 -11.408372,-32.05441 -9.71515,-43.98209 z M 355.12658,222.7106 c -8.90175,-27.48473 -25.02814,-52.10812 -42.41091,-74.9329 -2.9404,-3.72068 -11.94411,-14.03084 -5.35691,-3.04121 3.79078,9.0249 1.65493,6.99424 -3.88178,0.94989 6.09135,5.84267 11.68002,26.78513 8.38978,28.4329 -2.81776,-9.61673 -13.68873,-19.44265 -17.04329,-25.22666 -11.08695,-15.30665 -1.08054,-28.16191 13.52296,-27.7237 29.56182,21.90461 46.27451,57.86055 48.07657,94.17518 0.40027,2.32674 0.73205,5.92869 -1.29642,7.3665 z m -43.05042,-45.68772 c 0.38594,-1.11137 0.38594,1.11137 0,0 z" /><path
     d="m 170.91053,0.8012574 c 20.08195,-3.5493668 17.74684,23.8181196 36.42771,14.0106586 23.3511,-0.653831 36.42772,26.153229 35.02665,46.702195 0.65383,15.878746 -13.54364,28.955361 -18.21386,41.097929 7.47235,19.1479 7.47235,40.63091 14.94471,59.77881 12.14257,-10.7415 7.93937,-23.81812 12.14257,-36.89473 8.40639,-16.34577 -31.7575,-29.889407 -7.93938,-39.229846 10.27449,0.793938 22.88408,13.543637 12.6096,-4.623517 -10.27449,-12.142571 2.2417,-29.422383 14.01065,-19.1479 16.8128,-15.411724 21.95004,16.345768 35.02665,21.48301 4.2032,17.279813 4.62352,37.361753 -0.70053,54.641563 -7.47235,17.27982 -25.68621,21.95004 -33.15856,38.76283 -7.00533,13.07661 -33.62558,23.35109 -10.74151,34.0926 16.8128,13.07661 -26.62025,-4.2966 -13.54363,11.67555 -2.47522,15.41172 -0.0444,31.29047 8.40639,45.30113 8.4064,18.21385 29.42239,22.88407 44.83411,31.29047 -12.14257,18.21385 -38.2958,19.1479 -58.37774,14.47768 -12.14257,-14.01066 -9.80746,30.82345 -9.34044,20.54896 9.80746,-1.30766 25.21918,5.13725 28.95536,-8.87341 7.47235,-25.21919 37.36175,7.00533 13.54364,14.47768 -12.14258,-7.47235 -20.08195,12.60959 -32.22452,4.48341 -7.47235,5.13724 8.4064,11.20852 2.56862,22.41705 -1.30766,21.95003 -0.2662,44.83411 -3.03564,66.31712 -24.75216,20.54896 -49.97135,41.56495 -75.19054,61.17987 -16.34576,-8.87341 -30.82344,-22.41705 -46.70219,-33.15855 -22.884076,-8.87342 -14.47768,-35.49367 -19.1479,-54.64157 -2.288408,-18.68088 0.0841,-35.49367 -14.477681,-46.7022 C 75.871565,341.12015 61.860906,322.9063 52.987489,302.35733 39.910874,275.73708 74.937521,279.00623 90.816267,271.06686 102.49182,264.06153 129.57909,264.52855 134.24931,254.25407 123.04078,242.57852 117.90354,223.43062 107.16204,214.09018 94.552443,208.48592 83.343916,202.88166 69.333257,204.28272 48.31727,201.52729 42.713006,177.66247 23.565106,172.05821 9.0874257,168.69565 -13.79665,135.16347 10.955514,135.16347 c 28.488338,16.81279 -19.6149224,-19.1479 2.428514,-29.8894 11.208526,-7.939376 26.153229,24.75216 21.950031,0.79393 -2.101598,-19.614917 25.686208,-25.686202 25.219186,-3.59606 -0.331586,18.21385 13.543636,22.41705 16.345768,4.4367 -7.472351,-18.213852 -8.873417,-43.900059 8.873417,-56.976673 14.47768,-5.137242 17.74683,-21.48301 31.75749,-27.087274 7.47235,-14.0106581 23.3511,-19.6149215 38.2958,-20.0819434 4.2032,-2.05489659 8.87342,-2.8488339 13.54364,-2.75542951 z"
     stop-color="#000000"
     style="stroke-width:0.467022;paint-order:stroke fill markers"
     id="path2" /><path
     d="m 110.19768,443.53807 c -0.18214,0.1868 0.51372,5.60426 0.74723,5.60426 0.14478,0.14945 12.6096,9.34044 27.5543,20.54897 l 27.55429,20.08194 0.11676,-1.40107 c 0.0654,-0.79393 0.10741,-2.00819 0.0841,-2.66202 l -0.0439,-1.26096 -0.006,-0.005 0.0107,-0.60713 -0.005,-0.01 0.0981,-2.1483 c 0.056,-1.21426 0.10275,-3.31585 0.10742,-4.67022 l 0.008,-2.47521 0.006,-0.005 -0.006,-0.056 v -0.028 l -0.005,-0.005 -0.0654,-0.60713 0.008,0.006 0.0747,-0.98075 c 0.0448,-0.51372 0.0654,-1.02745 0.043,-1.12085 h -0.008 l 0.0887,-1.21426 c 0.0841,-0.2195 0.0374,-0.65383 0.0374,-1.30766 v -1.68128 l -0.0201,-0.0145 -0.0182,-0.70053 0.005,0.005 c 0.0257,-0.0173 0.14944,-4.67022 0.27554,-10.7415 0.12609,-6.07129 0.23351,-11.67555 0.23351,-13.54364 l 0.008,-2.80213 -0.0163,-0.0285 0.3456,-15.41173 0.005,-0.0383 c 0.056,-0.44834 0.15411,-3.50267 0.21016,-7.00533 l 0.0981,-6.07129 -0.007,-0.005 c 0.0112,-0.0747 0.11675,-1.07415 0.15412,-1.49447 -0.0187,-0.74723 -0.14011,-0.88734 -0.10275,-1.58787 h 0.008 c 0.056,-1.12085 0.0981,-3.03564 0.0981,-4.2032 v -2.1483 L 135.18289,385.3971 c -17.74684,-8.87341 -32.69154,-16.34577 -32.69154,-16.34577 l 3.7e-4,0.002 c -0.18681,-0.0654 -0.15879,0.40631 0.30357,4.67022 l 0.36894,3.12905 c -0.0388,0.56042 1.54118,14.9447 1.68128,14.9447 l 1.07415,9.34044 c -0.16345,0.29889 1.86809,21.48301 2.1483,22.41705 l 0.11676,0.93404 c -0.0215,0.0173 0.0388,0.88735 0.14011,1.9615 l 0.19148,1.91479 0.1868,0.84064 c -0.20082,0.20082 0.15412,2.2884 0.42966,2.52191 l -0.0981,0.70054 c -0.0654,0.0654 0.84064,8.87341 0.93404,9.34044 z"
     fill="#ff00ff"
     stop-color="#000000"
     style="stroke-width:0.467022;paint-order:stroke fill markers"
     id="path4" /><path
     d="m 240.02978,419.25292 -0.0514,-1.49447 0.0327,-0.60712 0.10741,-1.02745 c 0.0607,-0.56043 0.0794,-1.07415 0.043,-1.07415 l -0.0168,-0.36428 c 0.0383,-0.36428 0.0701,-0.37362 0.0747,-1.02745 0.005,-0.439 0.11676,-3.78288 0.24285,-7.47235 0.1261,-3.64277 0.23351,-7.00533 0.23351,-7.93937 v -1.07415 l 0.46703,-13.07662 c 0,-1.16755 0.44834,-14.9447 0.56042,-17.27981 0.0747,-1.49447 0.0654,-1.68128 -0.056,-1.91479 l 0.0117,-1.02745 c 0.14478,-0.13076 0.37362,-6.53831 0.23352,-6.53831 v -10e-4 c -0.0794,0 -70.52032,44.83411 -70.52032,44.83411 -0.0341,0.0257 -0.0981,1.77468 -0.14011,3.92298 l -0.0841,3.87629 0.0346,-0.0229 0.11209,0.93405 -0.0238,0.0154 -0.0981,0.74723 c -0.16346,1.21426 -0.28955,11.20853 -0.14477,11.20853 l -0.46703,18.21386 -0.0145,0.0276 -0.22417,10.74151 c -0.25687,11.67554 -0.28956,14.01065 -0.15879,14.01065 4e-5,0 0.007,-0.006 0.007,-0.006 l -0.0607,0.74724 0.0117,0.007 c -0.18214,0.21483 -0.21483,2.98894 -0.0402,2.98894 l -0.005,0.006 -0.0747,0.74723 -0.0514,1.26096 c -0.0173,0.46702 -0.14477,0.88734 -0.0182,0.98075 -0.007,0.0747 0.0654,0.93404 0.0654,0.93404 l -0.10741,1.30766 c -0.1261,1.58788 -0.16813,8.4064 -0.0514,8.4064 v 0.005 l -0.14944,1.26096 c -0.15412,0.44367 -0.0887,0.93404 -0.0887,1.91479 -0.005,2.61532 -3.64277,5.13724 23.81812,-17.27981 13.07662,-10.74151 28.95536,-23.3511 35.02665,-28.48834 l 11.20853,-8.87342 0.12609,-0.84064 c 0.0701,-0.45301 0.10275,-1.49447 0.0747,-2.28841 l -0.042,-1.49447 0.056,-0.70053 0.10274,-0.84064 c 0.056,-0.45301 0.0747,-1.54117 0.0514,-2.38181 l -0.0514,-1.58788 z"
     fill="#ff00ff"
     stop-color="#000000"
     style="stroke-width:0.467022;paint-order:stroke fill markers"
     id="path6" /><g
     id="g16"
     transform="matrix(0.46702195,0,0,0.46702195,-30.842951,-14.143445)"><path
       d="m 469,180 c -1.2,-0.064 -2.6,0.14 -4.4,0.41 -22,3.4 -52,12 -71,21 -17,7.7 -36,20 -36,24 -0.29,2.2 -0.22,2.2 1.2,1.5 11,-5.8 34,-6.8 44,-2 11,5 5.7,12 -8.1,12 -7.3,0 -21,2.4 -29,5 -3,1 -6.5,2.2 -7.8,2.5 -1.3,0.36 -2.4,0.71 -2.5,0.77 -0.68,0.68 -1.4,24 -0.74,24 0.12,0.12 2,-1.6 4.3,-3.9 18,-19 43,-20 63,-2.9 7.4,6.5 7.2,6.2 3.1,3.5 -5.4,-3.6 -20,-11 -21,-11 -0.12,0 1.1,0.86 2.8,1.9 6.1,3.8 13,10 17,17 3,4.2 3,4.3 0.092,2.1 -5.7,-4.3 -20,-12 -21,-11 -0.055,0.055 0.65,1.2 1.6,2.6 9,14 7.5,34 -3,39 -10,5 -22,-3 -27,-18 -2.1,-6.5 -2,-18 0.13,-21 0.83,-1.3 0.36,-1.3 -1.3,-0.13 -8.9,6.1 -9.4,18 -1.6,32 0.9,1.7 1.7,3.6 1.8,4.2 l 0.23,1.1 -1.9,-0.23 c -2.1,-0.26 -4.3,-0.98 -7.5,-2.4 -1.1,-0.49 -2.1,-0.9 -2.3,-0.9 -0.36,0 3.9,13 6.4,19 l 1.9,4.9 3.5,-0.14 c 4.2,-0.18 7,-0.76 9.6,-2 2.5,-1.2 2.6,-1.3 0.74,-2.2 -3.8,-1.8 -9.2,-9 -9.2,-12 -0.028,-2.6 0.25,-2.6 5.3,0.41 4.7,2.8 15,5.4 21,5.5 l 4.3,0.018 3.9,-1.9 c 7.5,-3.7 11,-6.9 13,-11 1.2,-2.5 2.2,1 1.3,4.7 -3.3,14 -34,28 -50,24 -2.5,-0.7 -2.5,-1 0.61,5.3 9.6,19 24,40 44,63 l 5.4,6.2 2.6,0.83 c 7.5,2.4 21,3.5 28,2.5 23,-3.6 35,-9.2 47,-21 24,-25 34,-60 24,-82 -3.6,-8.1 -5,-11 -6.2,-15 l -1.3,-3.8 -3.1,2.2 c -8.9,6.4 -22,8.4 -32,5.1 -0.62,-0.19 -0.26,0.29 1.3,1.7 15,13 7.9,30 -15,38 -16,5.6 -28,2.2 -34,-9.7 -9.3,-20 13,-43 35,-36 1.7,0.5 3.5,0.96 4.1,1 0.57,0.046 2,0.27 3.1,0.5 15,3 32,-11 30,-24 -2.5,-24 -19,-37 -31,-25 l -1.3,1.4 h 1 c 5.5,0 13,13 14,25 2.5,24 -20,27 -25,3.1 -0.65,-3.4 -1,-3.2 -1.1,0.56 -0.055,2.5 -0.25,2.2 -1.9,-2.6 -2.9,-8.4 -2.9,-17 -0.21,-24 0.56,-1.6 0.96,-3 0.9,-3 -0.19,-0.19 -2.1,5 -3.4,9.3 -0.69,2.3 -1.6,5 -2,6 -0.38,1.1 -0.98,3.3 -1.3,5 l -0.59,3 -0.037,-2 c -0.27,-16 5.9,-28 19,-37 6.4,-4.4 17,-5.3 26,-2.2 3.2,1.2 3.2,1.2 0.74,-3.1 -2.1,-3.7 -6.8,-12 -7,-12 -0.41,-0.44 -16,3.3 -20,4.7 -3.9,1.5 -10,6.3 -17,12 -5.9,5.5 -9.8,5.4 -12,-0.25 -4.7,-11 18,-29 36,-28 4.5,0.055 4.4,0.24 1.9,-2.6 -9.1,-10 -11,-13 -15,-13 z m 49,80 c 0.093,-0.38 -0.42,0.4 -1.1,1.7 -0.72,1.3 -2.1,3.4 -3,4.7 -0.93,1.3 -1.9,2.7 -2.2,3 -0.38,0.53 -0.4,0.81 -0.092,1.3 1.8,2.5 2.6,5.2 2.1,6.9 -0.34,1.2 0.037,1.2 2.1,0.16 0.86,-0.44 0.85,-0.44 0.86,-5.7 0.018,-4.7 0.4,-8 1.4,-12 z m -196,25 c -1.7,3.7e-4 -2.5,0.23 -5,1.4 -1.6,0.78 -3.5,1.5 -4.2,1.6 -0.69,0.12 -2,0.74 -2.9,1.4 -0.91,0.64 -2.5,1.7 -3.6,2.3 -6.5,3.7 -9.2,15 -5.9,26 0.48,1.6 1.5,5.3 2.2,8.2 3.9,15 9.3,23 19,26 4.8,1.8 4.4,1.9 4.2,-1.9 l -0.23,-3.2 -1.9,-2 c -1.2,-1.2 -2.6,-2.3 -3.5,-2.8 l -1.6,-0.7 -1.3,0.86 c -2.5,1.7 -5,0.49 -5.9,-2.8 -0.83,-3 -0.15,-3.8 1,-1.2 1.4,3.2 2.2,3.4 4.2,1.6 1,-0.94 1.6,-1.2 2.7,-1.2 1.5,0 1.7,-0.43 2.9,-4.6 l 0.5,-1.7 -0.11,2.9 c -0.055,1.6 -0.21,3.1 -0.34,3.4 -0.17,0.38 0.083,0.7 0.88,1.1 0.62,0.32 1.5,0.84 1.9,1.1 l 0.77,0.56 -0.018,-12 c -0.008,-9.4 -0.11,-12 -0.47,-13 -0.4,-0.53 -0.49,-0.29 -0.72,1.9 l -0.27,2.5 -0.75,-4.4 c -0.79,-4.6 -1.2,-5.3 -3,-6.3 -2.2,-1.1 -5.4,2.6 -5.4,6.4 0,1.5 -0.57,1.8 -1.4,0.86 -0.58,-0.7 -0.57,-4.2 0.018,-5.7 2.3,-5.7 6.5,-6.8 10,-2.6 l 1.7,1.8 -0.21,-4.8 c -0.24,-5.3 -0.36,-5.7 -2.9,-7.6 -6.1,-4.7 -13,0.74 -15,12 -0.28,1.7 -1.1,1.7 -1.6,-0.11 -2.8,-9.4 8.1,-20 16,-16 2.4,1.1 2.2,1.4 1.9,-4.7 l -0.3,-5.2 z m 185,30 c 0,0.46 -2.8,4.2 -4.5,6.1 l -1.4,1.5 1.2,1.6 c 5.3,7 4.5,25 -1.9,40 -8.8,20 -21,27 -47,26 -22,-1.1 -48,-14 -46,-24 0.19,-1.4 0.14,-1.5 -0.72,-1.8 -1,-0.34 1.5,-1 9.3,-2.5 3.8,-0.72 16,-4.7 24,-8.3 2.4,-0.94 6.7,-2.6 9.6,-3.7 25,-9.5 40,-18 52,-29 3.1,-3 5.6,-5.3 5.6,-5.1 z m -16,90 -2.1,1.1 c -16,8.1 -38,12 -54,9.3 -1.8,-0.28 -3.4,-0.44 -3.5,-0.38 -1.4,1.4 35,32 42,36 2.7,1.3 14,4.1 20,4.8 l 3.6,0.47 0.21,-1.7 c 0.12,-0.91 0.48,-2 0.79,-2.5 0.71,-1.1 2.5,-2.2 3.6,-2.2 0.75,0 0.79,-0.11 0.61,-1.8 -0.1,-0.99 -0.28,-5 -0.4,-9 -0.22,-7.8 -0.58,-12 -1.4,-17 l -0.52,-2.9 -2.7,-2.5 c -3.1,-2.9 -4.9,-5.9 -5.5,-9.4 z m 14,16 c 1.4,7.1 0.92,23 -0.91,28 -0.46,1.3 -0.43,1.4 0.68,2.9 0.63,0.82 1.1,1.8 1.1,2.2 0,1 0.28,0.67 3.4,-4.5 1.6,-2.7 3.1,-5.7 3.6,-7.2 0.46,-1.4 1.1,-2.8 1.3,-3.1 0.47,-0.52 0.34,-0.89 -1.4,-3.8 -1,-1.8 -3.3,-5.9 -5,-9.2 -1.7,-3.3 -3,-5.6 -2.9,-5.1 z m -43,35 c -1.7,-0.62 4.8,5.5 6.7,6.3 5.4,2.3 13,3 19,1.9 1.6,-0.29 4.2,-0.91 5.9,-1.4 1.6,-0.47 3.3,-0.83 3.6,-0.77 0.45,0.074 1,-0.32 1.7,-1.2 l 0.95,-1.3 -2.5,-2.5 -4.8,0.11 c -3.3,0.074 -5.5,-0.037 -7.1,-0.4 -1.3,-0.28 -2.5,-0.47 -2.5,-0.41 -0.18,0.18 5.4,4.1 5.7,4.1 0.15,-0.037 0.35,0.2 0.43,0.52 0.58,2.2 -15,-0.67 -27,-4.9 z"
       fill="#f0c1d7"
       stop-color="#000000"
       style="paint-order:stroke fill markers"
       id="path8" /><path
       d="m 639,735 -3.1,1.8 c -1.7,1 -4.1,2.4 -5.2,3 -4.9,2.7 -11,6.2 -16,9.9 -3.4,2.2 -7.2,4.6 -8.5,5.3 -1.3,0.71 -2.4,1.4 -2.5,1.6 -0.3,0.49 -1.5,0.37 -3.9,-0.38 -3.5,-1.1 -11,-2.3 -18,-3.1 -3.8,-0.39 -8.1,-0.89 -9.7,-1.1 l -2.8,-0.38 -2.1,2.3 c -2.1,2.2 -9.2,7.8 -12,9.6 l -1.6,0.91 0.5,1.4 c 0.27,0.77 0.67,2.8 0.88,4.6 l 0.4,3.2 6,2.4 c 7.2,2.9 5.1,3.4 13,-3.5 h 0.018 c 10,-8.7 11,-9.1 16,-7.4 1.7,0.59 5.1,1.6 7.6,2.3 2.5,0.67 5.1,1.4 5.6,1.5 1.2,0.39 5.5,-2.2 15,-8.9 7.4,-5.3 9.1,-6.3 16,-9.4 3.1,-1.4 6.9,-3.2 8.4,-4 4.9,-2.3 6,-8.7 1.8,-10 -0.66,-0.21 -2,-0.65 -3,-0.97 z"
       fill="#e5c04c"
       stop-color="#000000"
       style="paint-order:stroke fill markers"
       id="path10" /><path
       d="m 650,717 c -9,0.18 -16,7.3 -16,17 v 2.5 l 2.1,-1.1 c 1.1,-0.64 2.4,-1.6 2.7,-2.2 2,-3.3 8.8,-2.4 11,1.5 3.4,5.3 1.4,14 -3.5,15 -1.6,0.34 -5.1,2 -5,2.4 0.75,2.7 11,3.4 16,1.1 14,-7 12,-32 -3.3,-35 -1.3,-0.27 -2.6,-0.38 -3.9,-0.36 z"
       fill="#cd152f"
       stop-color="#000000"
       style="paint-order:stroke fill markers"
       id="path12" /><path
       d="m 565,662 c -0.36,0.097 -0.94,0.57 -1.9,1.3 -2.9,2.1 -10,5.8 -18,8.7 -32,13 -70,15 -76,5.5 -0.42,-0.75 -0.86,-1.4 -0.97,-1.4 -0.16,0 -7.1,27 -8.6,33 -0.64,2.8 5,2.5 28,-1.5 22,-3.7 38,-7.6 52,-12 4.1,-1.4 4.8,-1.4 1.7,-0.018 -1.2,0.52 -6,2.7 -11,4.8 -13,5.8 -20,7.9 -35,10 -16,2.6 -27,3.6 -32,2.9 -1.8,-0.22 -3.6,-0.44 -3.9,-0.47 -1.3,-0.1 -3.5,23 -2.7,29 0.16,1.1 3.5,2.5 9.9,4.1 14,3.4 37,1.7 54,-3.9 3,-0.94 5.5,-1.6 5.5,-1.6 0.11,0.11 -8.8,3.4 -14,5.2 -15,5.2 -37,5.2 -51,0.092 -2,-0.79 -4,-1.5 -4.4,-1.6 -1.3,-0.37 -0.23,14 1.7,24 l 0.97,5 1.5,1.1 c 13,9.1 45,11 65,4.4 6.6,-2.3 7,-2.2 1,0.27 -12,5 -22,6.3 -37,4.9 -14,-1.2 -21,-3.1 -27,-7.5 -1,-0.68 -1.9,-1.2 -1.9,-1.1 -0.37,0.37 6,22 8.3,29 1.9,5.3 1.3,4.9 8.4,5.7 15,1.5 30,0.93 36,-1.3 1.1,-0.45 1.2,-0.47 0.7,-0.055 -4.1,3.2 -25,4.5 -40,2.6 -1.2,-0.14 -2.1,-0.21 -2.1,-0.16 0,1.1 12,25 12,26 0.47,0.29 0.39,1.2 -0.11,1.2 -0.24,0.004 -2.7,-1.1 -5.6,-2.5 -2.8,-1.4 -7.4,-3.6 -10,-5 -13,-6.4 -42,-28 -54,-40 -1.3,-1.4 -3.7,-3.4 -5.3,-4.5 -10,-7.1 -19,-14 -27,-23 -4.1,-4 -5.3,-5.3 -3.2,-3.5 5.5,4.9 7.5,6.5 14,11 7.4,5.7 13,9.5 13,9.5 0.12,0 -1.2,-1.6 -2.8,-3.5 -1.7,-1.9 -5,-5.9 -7.3,-8.8 -2.3,-2.9 -5.8,-7.1 -7.6,-9.4 -4,-4.9 -7.1,-9.2 -11,-15 l -2.7,-4.2 -0.61,0.77 c -1.1,1.3 -2.1,5.3 -1.8,7.1 0.12,0.88 0.28,2.1 0.34,2.6 0.055,0.57 0.22,1.3 0.36,1.6 0.32,0.74 -0.25,0.78 -0.84,0.074 -2.6,-3.1 -11,11 -12,20 -0.74,5.9 -0.21,11 1.5,15 0.46,1 1.1,2.6 1.4,3.5 0.46,1.3 0.83,1.7 1.9,2.2 1.7,0.78 1.9,0.7 -3.2,2 -8.3,2.2 -10,4.7 -12,15 -2.1,11 -1.3,19 2.5,25 2.5,3.8 1.8,4.6 -1.3,1.3 -2.2,-2.4 -5.2,0.36 -7,6.5 -0.21,0.71 0.53,1.1 10,6.1 l 11,5.3 -1.5,-2 c -2.2,-2.8 -4.8,-6.9 -4.6,-7.3 0.064,-0.17 1.6,1.6 3.5,3.9 5.8,7.3 3.5,5.9 37,23 16,8.3 30,15 30,15 0.074,0.004 20,-13 45,-29 l 45,-29 0.81,-1.8 c 0.44,-1 1.9,-3.1 3.3,-4.6 6.2,-7.2 8.4,-13 6,-15 -1.1,-1.2 0.28,-3.4 3.2,-5.2 8.1,-5 14,-13 15,-20 1.2,-6.6 1.4,-11 0.65,-18 -0.19,-1.8 -0.15,-2 0.5,-2.2 0.41,-0.11 1.3,-1.2 2.1,-2.5 3.8,-6.4 4.7,-9.8 4.4,-18 -0.25,-7.4 -0.31,-7.5 -2.8,-6.5 -0.64,0.27 -0.63,0.23 0.055,-0.74 0.39,-0.55 1.2,-1.9 1.7,-3.1 0.56,-1.1 1.7,-3.3 2.6,-4.8 4.4,-7.6 5.8,-16 4.7,-28 -0.59,-6.3 -0.68,-6.7 -1.4,-6.7 -1.2,0 -0.018,-3.3 3,-8.4 2,-3.4 3.5,-12 3.1,-18 -0.13,-2 -0.14,-2.9 -0.45,-3.2 -0.074,-0.055 -0.17,-0.064 -0.29,-0.037 z M 368,798 c 0.064,0.009 0.15,0.046 0.27,0.092 0.3,0.11 2.9,2.9 5.8,6.1 22,25 44,38 71,43 9.7,2 9.2,2.1 -0.97,0.3 -28,-5.1 -50,-18 -70,-42 -3.1,-3.7 -5.8,-6.9 -6.1,-7.3 -0.24,-0.28 -0.36,-0.43 -0.36,-0.48 0.001,-0.028 0.046,-0.028 0.11,-0.018 z"
       fill="#9d02c1"
       stop-color="#000000"
       style="paint-order:stroke fill markers"
       id="path14" /></g><g
     fill="#800000"
     id="g28"
     transform="matrix(0.46702195,0,0,0.46702195,-30.842951,-14.143445)"><path
       d="m 302,863 c -0.62,0.24 -11,7.4 -11,7.8 -0.26,0.42 1.6,19 1.9,19 0.13,0 2.3,-2.2 4.8,-4.9 2.5,-2.7 4.6,-4.9 4.6,-4.9 0.028,0.028 3,6.4 6.6,14 3.6,7.7 6.7,14 6.9,14 0.16,0.16 3.4,-2.6 7.4,-6.2 3.9,-3.6 7.2,-6.5 7.3,-6.5 0.1,0.018 3.7,7 7.9,16 4.2,8.6 7.8,16 7.9,16 0.19,0.32 11,-7.7 16,-12 0.9,-0.74 1.7,-1.3 1.7,-1.2 0.055,0.074 4.3,8.1 9.5,18 5.1,9.8 9.4,18 9.5,18 0.12,0.13 5,-2.9 11,-6.7 l 11,-7 0.56,1.1 c 0.4,0.78 17,30 19,33 0.32,0.56 0.36,-0.17 0.59,-14 h -0.018 l 0.25,-14 -9.7,-14 c -5.3,-7.5 -9.9,-14 -10,-14 -0.52,-0.53 -1.3,-0.29 -11,3.8 l -11,4.4 -9.7,-14 c -5.3,-8 -9.8,-15 -9.9,-15 -0.13,0 -4.1,2 -8.8,4.4 l -8.6,4.4 -7.6,-12 c -4.2,-6.8 -7.8,-13 -8,-13 -0.36,-0.39 -1.6,0.25 -7.6,3.8 -4,2.4 -7.3,4.3 -7.4,4.3 -0.094,0 -3.1,-5.1 -6.7,-11 -4,-6.8 -6.7,-11 -7,-11 z"
       stop-color="#000000"
       style="paint-order:stroke fill markers"
       id="path18" /><path
       d="m 568,846 c -0.15,0 -3.7,5.9 -7.8,13 -4.1,7.2 -7.7,13 -7.9,13 -0.26,0.33 -2.2,-0.73 -8.2,-4.5 -4.3,-2.7 -8.1,-5.1 -8.4,-5.3 -0.47,-0.26 -2,2.1 -9.6,15 -5,8.2 -9.1,15 -9.2,15 -0.12,0 -4.5,-2.4 -9.7,-5.3 -5.2,-2.9 -9.5,-5.3 -9.6,-5.2 -0.046,0.055 -4.8,7.5 -11,17 l -11,16 -2.3,-1.1 c -1.3,-0.61 -6.3,-3.1 -11,-5.4 -4.9,-2.4 -8.9,-4.3 -9,-4.2 -0.083,0.083 -5.3,7.8 -12,17 l -11,17 -0.21,8.3 c -0.55,22 -0.61,26 -0.45,26 0.097,0 5.4,-9.8 12,-22 l 12,-22 11,8.4 c 6.5,4.9 11,8.2 12,8.1 0.17,-0.17 4.9,-9.2 10,-20 5.6,-11 10,-20 10,-20 0.26,-0.26 0.21,-0.3 10,8.2 5,4.2 9.1,7.7 9.3,7.7 0.27,0 18,-36 18,-37 0,-0.79 1.1,0.19 8.7,7.6 4.4,4.3 8.2,7.9 8.3,7.9 0.16,-0.004 3.1,-6 6.4,-13 3.4,-7.3 6.9,-15 7.9,-17 l 1.7,-3.7 6.3,6.8 c 3.5,3.8 6.4,6.8 6.5,6.7 0.34,-0.33 0.92,-24 0.59,-24 -0.43,-0.56 -13,-9.3 -13,-9.3 z"
       stop-color="#000000"
       style="paint-order:stroke fill markers"
       id="path20" /><path
       d="m 188,660 c -0.34,-0.38 3.6,23 4.1,25 0.1,0.26 18,30 40,66 l 40,66 1,-0.57 c 0.55,-0.32 1.1,-0.75 1.3,-0.95 0.2,-0.24 -7.3,-14 -21,-38 -12,-21 -31,-55 -43,-77 -12,-22 -22,-40 -23,-40 z"
       stop-color="#000000"
       style="paint-order:stroke fill markers"
       id="path22" /><path
       d="m 389,583 c -0.41,-0.47 -10,2.8 -11,3.6 -3.9,4.8 -4.7,5.3 -4.7,3 0,-1.9 -0.29,-1.9 -5,-0.4 l -4.1,1.3 -0.43,1.4 -0.41,1.4 -0.25,-1.1 c -0.32,-1.4 4.9,-2.9 -39,11 -21,6.6 -39,12 -39,12 -11,3.1 -16,4.2 -22,6.7 -3.3,1.1 -12,4.2 -37,12 -21,6.5 -38,12 -38,12 0,0.15 8.4,15 19,33 28,51 63,112 68,122 2.6,4.7 5.1,9.1 5.5,9.7 l 0.65,1.1 7.6,-3.6 c 4.2,-2 20,-9.5 36,-17 33,-15 29,-13 29,-16 0.008,-11 9,-28 15,-28 h 1.4 l 0.23,-2.3 c 0.35,-3.5 0.8,-4.8 2.2,-6.3 l 1.2,-1.4 -1.1,-2 c -15,-27 -18,-40 -14,-56 2.6,-11 12,-23 19,-23 h 1.3 v -2.8 c 0,-5.5 3.2,-17 7.7,-27 1.3,-2.9 3.2,-7.6 4.3,-10 1.1,-2.8 2.9,-6.7 3.9,-8.6 l 1.9,-3.5 -0.9,-2.1 c -1.3,-3.1 -2.6,-6.9 -4.4,-13 -0.89,-2.9 -1.7,-5.4 -1.8,-5.6 z"
       stop-color="#000000"
       style="paint-order:stroke fill markers"
       id="path24" /><path
       d="m 479,513 c -6.8,0.34 -16,5.6 -20,12 -8,15 4.7,36 20,33 0.38,-0.055 1.6,-0.2 2.7,-0.3 15,-1.5 24,-19 17,-33 -2.8,-5.2 -9.9,-11 -13,-10 -0.63,0.16 -1.2,-0.003 -1.9,-0.56 -1.5,-1.1 -3.5,-1.5 -5.8,-1.4 z"
       stop-color="#000000"
       style="paint-order:stroke fill markers"
       id="path26" /></g><path
     d="m 203.60207,196.48345 c -0.18681,-0.0299 -0.38296,0.0346 -0.56043,0.2195 -0.79394,0.74724 -0.88734,1.9615 -0.14945,2.75543 0.36428,0.40164 1.07416,-0.15878 1.40107,-1.07415 0.30823,-0.88734 -0.11208,-1.82138 -0.65383,-1.91479 z m 3.03564,3.12905 c -1.12085,-0.0887 -2.2417,0.2662 -2.94224,1.07415 -4.67022,5.60427 0.74724,15.41173 7.47235,12.60959 2.47522,-0.93404 3.78288,-3.36255 3.03565,-5.60426 l -0.18681,-0.56043 -0.88734,0.93405 c -2.61533,2.75543 -6.07129,2.33511 -7.00533,-0.88734 -1.16756,-3.12905 0.56042,-6.07129 3.22245,-5.60427 l 0.65383,0.10742 -0.25219,-0.38296 c -0.60713,-0.93404 -1.68128,-1.44777 -2.80213,-1.54117 z m 9.80746,1.77468 c -0.0981,-0.0434 -0.2195,0.11209 -0.29422,0.51373 -0.14478,0.79394 -0.60713,1.21426 -1.26096,1.21426 -0.56043,0 -0.65383,0.0747 -1.44777,1.02744 -0.56043,0.65384 -1.49447,-0.29422 -1.54117,-1.54117 -0.004,-0.74723 -0.2662,-0.84064 -0.65383,-0.2195 -0.43433,0.65383 -1.02745,0.98075 -1.72798,0.88734 -0.26621,-0.0388 -0.46703,-0.0215 -0.46703,0.0346 0,0.16813 1.91479,1.91479 2.0549,1.91479 0.0887,0 0.31758,0.3456 0.51372,0.74724 0.18681,0.41565 0.39697,0.88734 0.46703,0.98074 0.0794,0.13077 0.19148,0.37362 0.24285,0.51373 0.19615,0.56042 0.56042,-0.0346 0.45301,-0.74724 l -0.0981,-0.65383 0.30357,0.37829 c 0.2662,0.33159 0.32224,0.34093 0.51372,0.11676 0.16813,-0.20082 0.16346,-0.30357 0.008,-0.51373 -0.23351,-0.28021 0.0131,-0.32224 0.28488,-0.0514 0.14011,0.14011 0.23818,0.13544 0.42499,-0.0173 0.31758,-0.26153 0.31291,-0.56043 -0.008,-0.88734 -0.34093,-0.34093 -0.19615,-0.65383 0.3596,-0.79394 1.16756,-0.25219 2.0082,-1.16755 2.0549,-2.2417 0.004,-0.41098 -0.07,-0.65384 -0.16813,-0.70054 z"
     fill="#e5c04c"
     stop-color="#000000"
     style="stroke-width:0.467022;paint-order:stroke fill markers"
     id="path30" /><path
     d="m 212.00846,193.68132 c -0.13076,0.0346 -0.46235,0.60713 -1.02745,1.72798 -0.65383,1.26096 -1.12085,1.9615 -1.86808,2.70873 l -0.98075,0.98075 0.56043,0.36894 c 0.98074,0.65384 1.58787,1.68128 1.54117,2.56863 -0.0131,0.23818 -0.0701,0.25686 -0.3456,0.10741 -1.86808,-1.02745 -3.92298,0.56043 -3.92298,3.03564 -0.004,2.1016 0.0173,2.1016 2.1016,0.45301 1.21425,-0.93404 1.30766,-1.16755 0.79394,-1.77468 -0.60713,-0.70053 -0.22418,-1.07415 0.84063,-0.79394 0.51373,0.14011 1.12086,-0.13076 1.21426,-0.56042 0.0467,-0.19148 0.2662,-0.56043 0.46702,-0.84064 0.2195,-0.25686 0.70054,-1.30766 1.07415,-2.38181 0.36428,-1.02745 0.79394,-2.14831 0.93405,-2.47522 l 0.28488,-0.56043 -0.79394,-1.16755 c -0.42966,-0.65383 -0.79393,-1.26096 -0.79393,-1.30766 0,-0.10275 -0.0215,-0.15412 -0.0654,-0.14011 z m 1.91479,2.98894 -0.10741,0.60713 c -0.0607,0.3456 -0.44834,1.40107 -0.84064,2.28841 -0.93405,2.1016 -1.02745,2.80213 -0.46702,3.45596 0.22884,0.27087 0.42032,0.60713 0.42032,0.79394 0,0.20549 0.11675,0.11675 0.40164,-0.30357 0.4063,-0.60712 0.65383,-0.70053 1.68127,-0.79393 0.51373,-0.0388 0.60713,-0.13077 0.93405,-0.84064 0.45301,-0.88734 0.65383,-1.02745 1.02745,-0.65383 0.88734,0.88734 -0.15412,2.84883 -1.82139,3.45596 -0.45301,0.15412 -0.74723,0.32692 -0.65383,0.38763 0.25686,0.15879 0.21016,0.98074 -0.0654,1.21425 -0.21016,0.1728 -0.19148,0.2522 0.13543,0.65384 2.52192,3.03564 -1.12085,7.93937 -6.07128,7.93937 -3.12905,0 -7.47235,-3.26915 -7.47235,-5.60426 0,-0.12143 -0.74724,-0.2195 -2.33511,-0.28489 -2.52192,-0.10274 -3.78288,-0.33625 -5.13724,-0.98074 -0.51373,-0.2195 -0.98075,-0.40164 -1.02745,-0.40164 -0.0434,0 0.32691,0.56042 0.79393,1.26096 3.12905,4.39 6.53831,12.60959 7.00533,16.34576 0.0794,0.74724 0.29423,2.1016 0.46703,3.08235 0.0346,0.17747 0.39696,0.74723 0.79393,1.26096 3.03565,3.87628 3.12905,8.87342 0.24285,13.54364 -0.46702,0.70053 -0.51372,0.74723 -0.51372,2.80213 -0.004,8.87341 -3.54937,24.75216 -8.87342,40.16388 -1.35436,3.87629 -3.12904,9.80747 -3.12904,10.27449 0,2.195 14.9447,1.44777 24.28514,-1.21426 10.7415,-3.12905 17.74683,-7.47235 23.81812,-15.41172 0.60713,-0.74724 0.21483,-0.12143 -0.79394,1.35436 -3.82958,5.60426 -10.27448,10.27448 -19.61492,13.54364 -8.4064,3.12904 -23.81812,4.57681 -27.08728,2.61532 l -0.51372,-0.30824 -0.40164,1.58788 c -0.2195,0.88734 -0.35026,1.63458 -0.29422,1.68128 0.056,0.0346 0.51372,0.11208 1.07415,0.16813 0.51372,0.056 2.1483,0.28021 3.59607,0.51372 1.44777,0.21483 2.84883,0.42032 3.12904,0.45301 1.12086,0.13544 7.93938,0.0887 8.87342,-0.0654 v 0.008 c 9.34044,-1.12086 20.08195,-4.57682 24.28514,-7.93938 5.60427,-4.01639 11.67555,-14.01066 9.34044,-14.47768 -1.96149,-0.74723 -4.67022,-3.92298 -6.07128,-7.00533 -0.60713,-1.30766 -1.35437,-3.96968 -1.86809,-7.00533 -0.79394,-4.39 9.3e-4,-14.01066 1.44777,-17.27981 0.22884,-0.51372 0.42032,-0.98075 0.42032,-0.98075 0,-0.0257 -0.65383,0.30357 -1.49447,0.74724 -1.9615,1.02745 -5.60427,2.42851 -8.87342,3.68947 -1.58788,0.56043 -4.10979,1.54118 -5.60426,2.19501 -4.43671,1.96149 -7.93938,3.17575 -8.4064,3.12904 -0.16346,-0.0173 -0.56043,0.0299 -0.84064,0.11676 -0.3129,0.0841 -0.51372,0.0887 -0.42032,0.0173 0.22884,-0.21016 1.63458,-0.98075 1.77468,-0.93405 0.0654,0.008 0.0462,-0.043 0.0981,-0.043 -0.0299,-0.0131 -0.0607,-0.0257 -0.0607,-0.0607 0,-0.0444 0.0346,-0.0841 0.0747,-0.0841 0.0444,0 0.0841,0.043 0.0841,0.0841 0,0.0257 -0.0299,0.0257 -0.0514,0.043 0.15412,-0.0173 0.35027,-0.0215 0.32692,-0.11675 -0.0215,-0.0841 1.30766,-1.07415 2.98894,-2.19501 3.03564,-2.00819 3.87628,-2.42851 12.14257,-6.5383 14.47768,-7.00533 15.41172,-7.93938 14.01066,-14.47768 -1.49447,-6.53831 -2.70873,-9.80747 -5.60427,-14.94471 -2.38181,-4.06309 -3.82958,-6.5383 -3.78287,-7.00533 0.0388,-0.11208 -1.16756,-0.93404 -2.75543,-1.91479 -4.67022,-2.89553 -8.87342,-6.07128 -12.14257,-9.80746 z m -23.81812,8.4064 c -0.0131,0.10274 0.25687,0.41098 0.79394,1.02745 1.63458,1.86808 6.53831,3.31585 9.80746,2.70872 0.46235,-0.0934 0.46702,-0.11675 0.35027,-0.74723 -0.0701,-0.36428 -0.13077,-1.16756 -0.13544,-1.82139 l -0.008,-1.12085 -1.40107,0.31758 c -1.91479,0.42966 -6.53831,0.33158 -8.4064,-0.16813 -0.60712,-0.19148 -0.88734,-0.28956 -0.93404,-0.18681 z m 19.1479,-0.32692 c -0.21483,0.0131 -0.41098,0.2195 -0.70053,0.65383 -0.51372,0.74724 -2.00819,1.91479 -2.38181,1.91479 -0.41098,0 0.0257,0.98075 0.74723,1.63458 0.93405,0.88734 2.52192,1.12085 3.78288,0.46702 1.02745,-0.51372 1.12085,-0.79393 0.74724,-1.72798 -0.0747,-0.17747 -0.17747,-0.60713 -0.23351,-0.93404 -0.056,-0.33626 -0.25687,-0.74724 -0.44368,-0.88734 -0.1868,-0.14945 -0.46702,-0.42032 -0.65383,-0.60713 -0.37361,-0.37362 -0.60712,-0.56043 -0.79393,-0.56043 z"
     fill="#592b5c"
     stop-color="#000000"
     style="stroke-width:0.467022;paint-order:stroke fill markers"
     id="path32" /><path
     d="m 190.05843,156.31957 c -2.61532,-0.13077 -5.13724,0.24752 -8.87342,1.12085 -1.35436,0.3456 -2.70872,0.70053 -2.98894,0.74723 -0.44367,0.0981 -0.41098,0.12143 0.42032,0.29423 0.98075,0.20549 1.86809,0.70053 1.63458,0.88734 -0.0841,0.0841 -0.37362,0.0841 -0.70053,0 -2.47522,-0.65383 -6.53831,-0.20082 -8.87342,0.93404 -1.54117,0.79394 -1.63458,0.65383 1.82139,2.42852 6.07128,3.08234 6.5383,3.22245 7.93937,3.36256 3.64277,0.29889 7.93937,0.20082 10.7415,-0.23351 l 2.47522,-0.40164 1.86809,-1.86809 c 1.12085,-1.12085 2.28841,-2.47522 2.84883,-3.31586 l 0.98075,-1.44777 -1.35437,-0.51372 c -3.03564,-1.16755 -5.60426,-1.82139 -8.40639,-1.96149 z"
     fill="#d06994"
     stop-color="#000000"
     style="stroke-width:0.467022;paint-order:stroke fill markers"
     id="path34" /><path
     d="m 258.24364,143.70997 c -1.35437,-0.0887 -2.70873,-0.0514 -4.06309,0.13544 l -0.79394,0.0981 -1.16756,2.89553 c -2.61532,6.53831 -6.5383,13.07662 -11.67555,19.61492 l -1.16755,1.40107 0.51372,1.40106 c 1.91479,5.13725 6.07129,11.20853 12.6096,19.1479 2.33511,2.80214 2.195,3.12905 -0.51373,1.21426 -0.56042,-0.37829 -1.35436,-0.88734 -1.86809,-1.07415 -2.52191,-1.12085 -11.20852,-7.93937 -14.47768,-11.20853 -1.16755,-1.21425 -2.195,-2.1483 -2.2417,-2.1483 -0.98075,0.0299 -1.21426,-0.51372 4.48341,11.20853 2.38181,4.67022 4.67022,8.87342 6.53831,11.67555 0.88734,1.21426 0.44834,1.30766 3.12904,-0.79394 8.87342,-7.00533 20.54897,-20.54896 26.15323,-29.8894 0.79394,-1.40107 1.82139,-3.12905 2.24171,-3.82958 l 0.79394,-1.30766 -0.0981,-1.58788 c -0.56043,-8.87342 -8.87342,-15.87875 -18.21386,-16.34577 z m -56.50966,28.48834 c -0.14011,0.0131 -0.36895,0.18681 -0.79394,0.51373 l -0.3923,0.30356 0.28489,1.02745 c 0.42499,1.54117 1.16755,2.75543 2.2417,3.73618 1.26096,1.16755 1.26096,1.16755 0.0607,-1.9615 -0.56043,-1.49447 -1.07415,-2.94224 -1.12086,-3.22245 -0.0607,-0.28021 -0.11208,-0.42499 -0.25219,-0.41098 z m -86.39906,6.07129 -0.19148,1.49447 c -0.42032,3.36256 -1.72798,7.00533 -4.67022,12.14257 -3.92298,7.00533 -7.47235,11.20853 -12.14257,13.07661 l -1.260959,0.60713 1.120853,0.65383 c 3.269156,1.91479 5.604266,2.80213 8.873416,3.64277 5.13724,1.26096 15.87875,5.60427 18.68088,7.47236 8.87342,6.07128 12.14257,9.80746 22.88407,24.28514 3.40926,4.67022 6.53831,8.40639 6.53831,8.40639 0.0299,-0.0887 -0.13543,-1.16755 -0.35961,-2.38181 -0.70053,-3.78288 -1.21425,-5.60426 -2.75542,-10.7415 -0.46703,-1.49447 -1.35437,-4.67022 -1.9615,-7.00533 -0.93404,-3.73618 -1.44777,-5.60427 -3.36256,-10.74151 -3.82958,-10.7415 -4.3433,-11.67555 -7.93937,-16.81279 -1.30766,-1.86809 -2.84883,-4.15649 -3.36256,-5.13724 -1.63457,-2.80213 -2.98894,-4.67022 -3.82958,-5.60426 -0.42499,-0.45302 -0.98074,-1.21426 -1.21425,-1.68128 -0.40631,-0.79394 -0.51373,-0.88734 -1.16756,-1.02745 -2.42851,-0.60713 -10.27448,-6.53831 -12.60959,-9.80746 z m 55.10859,12.60959 c -0.0701,0.0654 1.49447,4.67022 2.66202,7.93937 l 1.07416,3.03565 0.88734,0.17747 c 4.67022,0.98074 9.34044,4.20319 13.07661,9.34043 4.2966,5.60427 5.60426,7.93938 7.47235,11.67555 1.16756,2.33511 1.68128,3.17575 1.96149,3.17575 0.0215,0 0.004,-0.2662 -0.043,-0.60713 -0.79394,-5.60426 -4.48341,-13.07661 -8.87342,-18.21385 -0.60713,-0.70054 -1.82138,-2.1483 -2.66202,-3.12905 -1.07415,-1.30766 -1.77469,-2.00819 -2.38182,-2.38181 -0.74723,-0.45301 -3.17574,-2.56862 -5.13724,-4.53011 -0.88734,-0.84064 -1.49447,-1.91479 -1.35436,-2.42852 0.0794,-0.32224 -0.13544,-0.46702 -2.195,-1.58787 -1.26096,-0.65383 -2.80214,-1.54118 -3.45597,-1.91479 -0.65383,-0.3923 -1.21425,-0.70054 -1.26096,-0.65383 z m 4.62352,14.01066 c -0.0131,0.0346 0.0131,0.10741 0.0514,0.20082 0.23351,0.60713 1.07415,5.13724 1.35436,7.47235 1.58788,12.14257 0.32225,20.54897 -4.67022,32.69154 -1.16755,2.80213 -4.43671,6.5383 -7.47235,8.87341 l -1.26096,0.88735 -0.42499,1.30766 c -0.23351,0.70053 -0.51372,1.54117 -0.65383,1.77468 -0.11675,0.2662 -0.40164,0.93404 -0.65383,1.49447 -0.65383,1.54117 -1.82138,3.40926 -2.75543,4.48341 -0.60713,0.65383 -0.84064,1.07415 -0.84064,1.40107 0,1.02745 -0.65383,3.03564 -1.68128,4.67022 -0.56042,1.07415 -1.35436,2.80213 -1.77468,3.87628 -0.41565,1.07415 -1.35436,3.31585 -2.0549,5.13724 -5.13724,11.67555 -4.67022,15.87875 2.47522,25.68621 0.74723,1.12085 1.77468,2.61532 2.28841,3.36256 0.46702,0.74723 1.40106,2.10159 2.1016,2.98894 1.91479,2.56862 2.56862,4.20319 1.16755,2.89553 -0.60713,-0.56042 -0.74723,-0.60713 -0.65383,-0.33625 0.21016,0.65383 -0.31757,0.38762 -2.195,-1.16756 -1.16756,-0.98074 -7.00533,-7.00533 -6.53831,-6.53831 0.13077,0.0981 1.30766,0.98075 2.61532,1.9615 1.30766,0.98074 2.33511,1.72798 2.33511,1.68128 0,-0.14478 -0.98074,-1.35437 -2.84883,-3.45597 -4.06309,-4.62351 -5.60426,-7.47235 -7.00533,-11.20852 l -0.3456,-1.30767 -2.05489,2.14831 c -7.00533,7.47235 -7.00533,14.47768 0.043,28.48833 3.78288,7.47236 5.60427,9.80747 12.14257,18.68088 10.27449,12.6096 23.81812,25.21919 34.09261,30.35643 0.88734,0.45301 1.96149,1.07415 2.38181,1.35436 0.98074,0.65383 0.98074,0.70054 0.65383,0.15879 -0.14945,-0.22884 -0.51373,-0.84064 -0.84064,-1.40107 -0.31291,-0.56042 -1.21426,-2.00819 -2.0082,-3.22245 -4.20319,-6.5383 -8.87341,-21.48301 -10.27448,-31.75749 -1.30766,-11.67555 -0.74723,-16.34577 4.06309,-35.02665 3.26916,-12.60959 3.59607,-14.01065 6.07129,-20.54896 1.63457,-4.67022 2.2417,-6.53831 4.2966,-14.47768 2.47522,-9.34044 3.50266,-14.9447 4.01639,-21.95003 l 0.10741,-1.40107 -0.93404,0.46235 c -4.57682,2.24171 -10.74151,0.70054 -13.54364,-3.40926 -5.60426,-7.93937 -0.0467,-18.21385 9.34044,-17.74683 0.88734,0.0388 1.58788,0.0467 1.58788,0.0346 0,-0.74724 -3.26916,-5.60427 -5.60427,-8.87342 -5.60426,-7.00533 -7.47235,-8.40639 -12.14257,-10.7415 -1.82138,-0.84064 -2.2417,-1.07415 -2.28841,-0.98075 z m 57.4437,6.07128 1.02744,1.02745 c 0.56043,0.56043 1.16756,1.21426 1.30767,1.44777 0.36427,0.56043 0.37361,0.56043 0.26153,-0.51372 l -0.0934,-0.84064 -1.26096,-0.51373 z m 3.64277,1.44777 c -0.2662,-0.0299 -0.41098,0.0514 -0.32692,0.26621 0.0607,0.15411 0.25686,0.98074 0.43433,1.86808 0.26154,1.26096 0.51373,1.91479 1.16756,3.12905 1.86809,3.31586 3.31585,7.93937 4.67022,14.47768 0.65383,3.08235 1.07415,4.67022 1.21425,5.13724 0.13077,0.33159 0.60713,-2.38181 0.84064,-4.67022 0.65383,-6.5383 -1.26096,-14.01066 -4.67022,-18.21385 -0.65383,-0.84064 -2.61532,-1.86809 -3.45596,-1.91479 z m 5.13724,28.02132 c -0.0467,-0.13544 -0.56043,0.21483 -1.40107,0.98075 -0.74723,0.65383 -1.86808,1.58787 -2.56862,2.10159 -3.68947,2.75543 -4.67022,13.54364 -2.2884,23.3511 0.88734,3.59607 2.47521,6.07129 5.13724,8.4064 0.60713,0.46702 1.16755,1.02745 1.30766,1.26096 0.1401,0.21483 0.56042,0.56042 0.88734,0.79393 2.94224,1.86809 0.16813,8.87342 -6.07129,15.41173 l -1.26095,1.30766 0.2195,0.65383 c 1.49447,4.1565 0.20081,11.67555 -2.38182,13.54364 -0.60713,0.51372 -0.65383,0.88734 -0.0346,0.74723 0.22884,-0.056 1.12086,0.22884 2.52192,0.79394 6.07129,2.52192 11.67555,3.73618 20.54897,4.67022 3.40926,0.36895 10.27448,0.33158 13.54363,-0.0747 h 0.008 c 6.07129,-0.79394 11.67555,-2.28841 15.87875,-4.53012 2.38181,-1.16755 2.89553,-1.54117 9.34044,-6.5383 l 1.49447,-1.12086 -0.60713,-0.0981 c -3.08235,-0.51373 -12.60959,-4.62352 -24.28514,-10.27448 -14.01066,-7.00533 -23.81812,-21.01599 -28.02132,-41.56496 -1.26096,-5.60426 -2.0549,-8.87342 -2.24171,-9.80746 z"
     fill="#6d173a"
     stop-color="#000000"
     style="stroke-width:0.467022;paint-order:stroke fill markers"
     id="path36" /><path
     d="m 198.93185,140.44082 c -0.30824,-0.0654 -0.84064,0.3923 -2.0549,1.26096 -2.05489,1.54117 -5.13724,3.45596 -6.53831,4.2966 -0.88734,0.51373 -8.40639,3.68948 -10.27448,4.2966 -0.60713,0.22417 -2.47521,0.93405 -4.06309,1.54118 -1.63458,0.65383 -4.3433,1.63457 -6.07128,2.2417 -1.68128,0.60713 -3.03565,1.12085 -3.08235,1.16756 -0.056,0.056 1.82139,1.58787 3.08235,2.52191 1.02744,0.74724 1.86808,0.79394 4.39,0.21016 2.33511,-0.56042 3.64277,-0.93404 5.60427,-1.72798 0.79393,-0.35493 3.40926,-1.30766 5.60426,-2.05489 11.67555,-3.87629 14.9447,-6.53831 13.54363,-12.14257 -0.22884,-1.16756 -0.29889,-1.77469 -0.60712,-1.82139 z m -1.44777,10.74151 c -0.56043,0.056 -1.16755,0.17746 -1.77468,0.37828 -1.21426,0.37829 -1.30766,0.439 -1.30766,0.84064 0,0.35027 0.38762,2.61533 0.56042,3.31586 0.0257,0.0981 0.38763,0.26153 0.79394,0.37829 1.07415,0.28488 2.89554,1.16755 3.50266,1.68128 0.26621,0.22417 0.51373,0.41564 0.51373,0.42031 0.0131,0.003 0.17747,-0.23818 0.3596,-0.51372 0.56043,-0.93404 0.0299,-1.91479 -1.82138,-3.26915 l -0.46702,-0.35027 0.46702,0.17747 c 0.74723,0.26153 1.49447,0.88734 2.00819,1.68128 l 0.44367,0.70053 0.84064,-1.91479 c 0.45769,-1.07415 0.79394,-1.96149 0.79394,-1.96149 -1.68128,-1.21426 -3.17575,-1.68128 -4.67022,-1.49447 z m -30.82345,9.80746 c -0.18214,0.0887 -0.24285,0.27554 -0.24285,0.56042 0,0.56043 8.4064,3.64277 9.80746,3.64277 0.13077,0.002 -1.21426,-0.70053 -2.94224,-1.58787 -4.39,-2.195 -6.07128,-2.89554 -6.5383,-2.61532 z"
     fill="#fcf8fc"
     stop-color="#000000"
     style="stroke-width:0.467022;paint-order:stroke fill markers"
     id="path38" /><path
     d="m 183.98715,122.22696 c -0.74724,0.0514 -1.54118,0.16346 -2.33511,0.32692 -1.12086,0.22884 -2.1483,0.42032 -2.33511,0.42032 -1.91479,0 -6.07129,6.53831 -6.07129,9.80746 0.008,6.07129 4.39001,9.34044 10.74151,7.93937 8.40639,-1.30766 14.47768,-7.47235 12.14257,-12.14257 -2.24171,-4.43671 -7.00533,-7.00533 -12.14257,-6.5383 z"
     fill="#800000"
     stop-color="#000000"
     style="stroke-width:0.467022;paint-order:stroke fill markers"
     id="path42" /><g
     id="g54"
     transform="matrix(0.46702195,0,0,0.46702195,-30.842951,-14.143445)"><path
       d="m 477,244 c -3.5,0.19 -7.2,5.5 -9.7,14 l -0.99,3.6 0.74,4.3 c 2.4,14 9.4,21 17,17 8.6,-4.4 6.4,-28 -3.5,-38 -1.1,-1.1 -2.2,-1.6 -3.4,-1.6 z m -82,19 -5.8,0.018 c -11,0.018 -14,1.8 -15,11 -2.1,19 13,37 25,32 6.8,-3.1 10,-14 7.5,-24 -2.6,-9.8 -5,-14 -11,-17 z"
       fill="#3b6cb5"
       stop-color="#000000"
       style="paint-order:stroke fill markers"
       id="path44" /><path
       d="m 487,197 -2,0.21 c -1.1,0.12 -2.3,0.38 -2.7,0.59 -0.4,0.21 -2.7,0.91 -5,1.5 -17,4.5 -32,17 -29,24 1.4,3.7 3,3.5 7.6,-0.9 12,-11 14,-12 37,-17 0.93,-0.18 0.18,-1.4 -4,-6.4 z m -97,27 c -2.1,-0.11 -4.2,-0.083 -6.5,0.11 -12,1 -17,2.2 -24,5.2 -3,1.4 -2.8,1.1 -3.3,6.4 -0.68,7.5 -0.8,7.2 3.2,5.8 12,-4.4 21,-6.1 35,-6.6 11,-0.4 14,-2.1 9.6,-6 -3.2,-2.9 -8.2,-4.5 -14,-4.9 z"
       fill="#533e58"
       stop-color="#000000"
       style="paint-order:stroke fill markers"
       id="path46" /><path
       d="m 481,179 -3.2,0.23 c -4.5,0.33 -4.5,0.47 -1.1,2.2 3.6,1.9 6.5,4.7 11,11 l 3.3,4.3 2.2,0.41 c 9.2,1.8 13,7.8 6.7,9.9 l -1.9,0.61 1.7,3.1 c 0.93,1.7 3,5.7 4.6,8.8 l 2.9,5.7 2.5,0.74 c 4.9,1.4 8.1,1.7 12,1 2.7,-0.47 2.8,-0.22 -1,-5.9 -5.2,-7.7 -10,-13 -18,-22 -4.3,-4.3 -8.8,-8.9 -10,-10 -1.3,-1.4 -4.5,-4.2 -7,-6.2 z m 12,19 c -0.33,0.33 4.9,7.7 5.4,7.6 0.3,-0.083 1,-0.24 1.6,-0.36 4,-0.83 3.9,-2 -0.43,-4.6 -1.7,-1 -6.3,-2.9 -6.5,-2.6 z m -139,29 c -1.3,-1.3 -24,24 -30,33 -0.62,0.97 0.15,4.3 3.3,14 1.7,5.3 2,6.5 3,15 1.1,8.8 1.3,16 1.4,37 0.074,29 0.71,38 3.7,56 4.8,28 10,44 16,52 4.7,6.2 8.5,12 10,15 0.81,1.4 4,6.4 7,11 18,28 32,63 36,88 1.7,12 1.8,38 0.055,43 -0.4,1.1 -0.72,2.1 -0.72,2.2 0.004,0.44 2.6,-4 3.6,-6.3 6.4,-14 14,-46 15,-65 1.3,-23 -1,-36 -9.9,-57 -1.7,-3.9 -3.5,-8.3 -4.2,-9.9 -3,-7.3 -8.8,-19 -13,-26 -1.3,-2.3 -0.42,-1.7 1.3,0.81 0.85,1.2 4.2,6 7.4,11 25,35 30,75 14,125 -1.8,5.7 -1.7,5.8 2.3,1.3 6.5,-7.3 7.2,-8.5 12,-23 8,-23 9.4,-36 6.5,-59 -1.4,-11 -2.5,-15 -8.5,-32 -4.4,-12 -5.3,-15 -7.1,-18 l -1.9,-3.9 -3.8,-3 c -10,-8 -21,-20 -31,-35 -3.8,-5.7 -6.8,-11 -14,-24 -3.3,-6.3 -7.2,-14 -9.8,-18 -2.5,-4.7 -1,-2.5 4.2,6.2 7.2,12 12,19 16,26 2.2,3.1 5.5,7.8 7.4,10 13,18 24,31 31,34 1.8,0.86 3,1.7 4.3,3.2 5.1,5.6 33,20 47,25 7.3,2.3 15,4.2 12,2.8 -11,-4.7 -19,-9.4 -30,-18 -17,-13 -20,-16 -31,-28 -39,-42 -57,-72 -69,-114 -0.055,-0.2 -2.5,-1.9 -5.5,-3.7 -8.1,-5.1 -13,-9.4 -13,-11 0,-0.24 -0.11,-0.71 -0.23,-1.1 -0.22,-0.6 -0.19,-0.59 0.47,-0.018 0.86,0.76 5.2,-1.1 10,-4.5 l 3.2,-2.1 -0.27,-3.3 c -0.36,-4.5 -0.26,-22 0.14,-25 0.3,-2.5 0.27,-2.7 -0.34,-2.9 -5.6,-1.8 -4,-8.7 3.1,-14 1.2,-0.86 2.8,-3.7 2.3,-4.2 z m 173,3.2 c -0.074,0.17 -0.11,0.52 -0.11,1 -2.8e-4,1.5 -1.1,5.5 -3.8,14 l -2,6.6 1.5,3.7 c 0.8,2 2.3,6.1 3.4,9.2 1.7,4.7 2.1,5.5 2.7,5.4 0.61,-0.074 0.62,0.037 0.32,1.1 -0.29,1.1 -0.083,1.9 1.6,6.9 7.2,22 12,39 12,44 l 0.13,3.3 -0.3,-3.1 c -0.17,-1.7 -0.64,-4.3 -1,-5.8 -1.9,-7.4 -13,-42 -13,-42 -0.95,0.028 -4.5,7.4 -4.1,8.6 0.76,2.2 4,9.7 6.4,15 6.3,13 7.8,22 5.7,36 -2.4,16 -10,34 -20,47 l -1.7,2.2 0.79,2.3 c 1,2.9 3,7.3 7.5,17 6.6,14 9.9,20 9.5,20 -0.69,-0.74 -8.3,-13 -9.9,-16 -3.2,-6.1 -7.1,-16 -8.5,-21 -0.093,-0.33 -0.74,0.19 -1.9,1.5 -0.97,1.1 -3.5,3.8 -5.5,5.9 l -3.8,3.9 0.97,2.8 c 5.3,15 18,40 26,50 15,19 49,37 81,43 0.47,0.093 -1.3,-0.93 -3.9,-2.3 -26,-13 -46,-36 -53,-58 -0.51,-1.7 -2.1,-6.5 -3.5,-11 -3.3,-9.7 -3.1,-9.8 0.72,-0.47 5,12 8.1,18 14,28 14,22 44,44 61,44 l 2.2,0.018 -3.1,-1.9 c -30,-19 -54,-52 -64,-88 -0.92,-3.2 -1.6,-4.8 -2.4,-5.8 -14,-18 -18,-26 -20,-38 -1.1,-6 -1.2,-7.9 -0.16,-4 4,15 23,43 40,58 2.6,2.3 19,16 22,18 0.28,0.2 -0.46,-0.7 -1.7,-2 -13,-14 -20,-26 -28,-45 -7.7,-20 -9.5,-27 -15,-56 -4.4,-25 -4.6,-26 -7.7,-39 -6.3,-26 -12,-42 -18,-55 -1.7,-3.5 -2.3,-4.6 -2.5,-4.1 z M 352,234 c -0.083,-0.35 -0.54,0.1 -1.4,1.1 -2.7,3 -3.1,6.5 -0.75,6.5 0.19,0.004 0.82,-1.8 1.4,-3.9 0.58,-2.2 0.86,-3.3 0.77,-3.7 z m -29,28 c -0.8,0.028 -13,21 -12,21 0.093,0 1.6,-0.49 3.4,-1.1 3.8,-1.3 7.2,-1.5 9.2,-0.54 l 1.2,0.61 -0.2,-6.3 c -0.2,-6.4 -0.87,-14 -1.2,-14 z m -9.5,93 c -0.028,0 0.38,1.7 0.91,3.7 3.5,13 2.4,30 -2.1,34 l -1.3,1.3 0.81,1.4 c 0.45,0.79 0.92,2.1 1,2.9 0.25,1.7 0.45,1.7 3.4,0.13 7.8,-4.2 13,-15 12,-23 -0.34,-2.5 -0.95,-7.5 -1.3,-11 l -0.74,-6.6 -3.6,-0.074 c -3.4,-0.083 -3.8,-0.17 -6.3,-1.4 -1.5,-0.7 -2.7,-1.3 -2.8,-1.3 z m 16,28 c -0.037,0.16 -0.009,0.63 0.11,1.5 0.45,3.2 -1.1,6.9 -4.4,11 l -1.3,1.4 1.3,2.3 c 2.3,4.2 2.5,9.9 0.54,14 -0.4,0.94 -0.68,1.8 -0.61,1.8 0.074,0.055 1.4,1.1 3,2.3 1.6,1.2 4.8,3.7 7.2,5.5 5.1,4 5,3.9 4,1.2 -0.43,-1.2 -1,-3.8 -1.3,-5.7 -0.31,-2 -1.2,-5.8 -1.9,-8.4 -1.6,-5.6 -4.1,-16 -5.1,-22 -0.55,-3 -1.2,-5.2 -1.3,-4.7 z m -15,110 c -0.53,0.23 -0.092,1.4 0.61,3.8 4.7,16 12,29 25,44 14,16 16,19 20,28 2.9,5.6 3.9,8.3 4.3,11 0.59,5.6 0.82,3.6 0.68,-6 -0.093,-6.2 -0.34,-12 -0.66,-14 -1.2,-9.3 -1.9,-14 -2.6,-16 -0.88,-2.8 -0.88,-2.9 0.2,-1 0.49,0.85 1.5,2.5 2.2,3.8 1.7,2.8 2.7,6.1 3.1,10 0.33,2.9 0.55,3.6 1.5,5 2.2,3.2 6,14 6.8,20 0.49,3.4 0.5,3.4 2.6,-1.5 1.9,-4.5 2.7,-7.3 3.5,-13 l 0.72,-4.7 -3.3,-8.3 c -6,-15 -18,-31 -30,-41 -13,-11 -21,-16 -29,-19 -3.1,-1.3 -4.6,-2 -5.2,-1.8 z m 70,64 1.2,2.9 c 3.4,7.8 6,14 6.3,16 0.2,0.91 0.66,2.2 1,2.9 0.9,1.8 4.3,13 4.8,15 0.36,2 0.33,2.5 -0.32,4.9 -0.4,1.5 -0.74,2.8 -0.74,2.9 0.004,0.33 1.1,-1.5 2.2,-3.6 2.6,-5.2 2.9,-12 1,-23 l -0.91,-5.4 -3.8,-3.2 c -2.1,-1.8 -5.4,-4.7 -7.3,-6.6 z m 138,-299 c -0.59,0 -0.98,12 -0.48,15 l 0.2,1.3 1.3,-0.74 c 0.68,-0.41 1.9,-1.1 2.7,-1.6 0.8,-0.46 1.5,-0.87 1.5,-0.91 0,-0.17 -2.2,-6.1 -3.5,-9.4 -0.75,-1.9 -1.5,-3.5 -1.6,-3.5 z"
       fill="#c78bda"
       stop-color="#000000"
       style="paint-order:stroke fill markers"
       id="path48" /><path
       d="m 660,165 c -2,0.096 -4,0.51 -6,1.3 -3.8,1.4 -2.4,11 3.2,23 3.9,8.3 6.6,17 7.5,23 0.31,2.3 5.7,13 10,21 1.4,2.3 3,5 3.6,6 l 1,1.9 2.7,0.75 c 5,1.4 11,3.8 16,6.8 0.018,0.008 -0.75,-2 -1.7,-4.5 -2.9,-7.8 -4.5,-16 -7.9,-38 -3.9,-26 -15,-42 -29,-41 z m -31,4.3 c -1.1,-0.13 -2.2,-0.093 -3.3,0.092 -7.8,1.3 -8.5,2 -8.5,9.6 0.004,7.2 0.22,8.3 4.3,20 9.4,28 12,36 12,42 0.028,1.7 0.55,2.3 12,12 6.9,5.9 12,11 16,15 1.8,2.2 3.8,4.6 4.4,5.3 2.2,2.6 4.3,7.2 4.3,9.2 l -0.018,1.8 -0.59,-1.1 c -1.7,-3 -17,-19 -23,-23 -6.5,-5.1 -12,-9.7 -17,-14 -10,-8.5 -27,-18 -36,-20 -10,-2.5 -18,3.3 -14,11 0.59,1.2 0.85,1.5 9.3,8.5 10,8.7 18,18 22,26 l 2.1,4.1 0.32,4.3 c 0.18,2.3 0.46,4.7 0.65,5.3 0.42,1.3 0.42,6.5 -0.018,8.3 -1.6,6.7 -0.44,16 1.9,15 3.5,-1.5 11,-1.1 20,1.1 12,2.7 15,4.4 25,12 3.3,2.5 5.1,3.6 5.7,3.6 4.1,0 13,-8.6 17,-17 1.1,-2.1 2,-3.8 2,-3.8 0.22,0.3 -1.4,9.2 -1.9,11 -1.5,4.6 -6.1,9.9 -11,12 -2.6,1.4 -2.7,0.99 1,3.8 6.2,4.6 13,11 15,14 1.2,1.8 0.81,1.8 4.2,0 6.5,-3.4 12,-11 17,-23 4.2,-11 7.1,-27 5.5,-32 -0.28,-0.93 -0.81,-3.2 -1.2,-5.1 -0.69,-3.5 -2.2,-8.5 -2.7,-9.2 -0.16,-0.21 -0.42,-0.9 -0.56,-1.6 -2.7,-13 -17,-24 -34,-27 -7.8,-1.4 -24,-1.3 -28,0.2 -1.1,0.41 -1,0.037 0.21,-1.3 2.4,-2.7 9.6,-5.1 17,-5.6 2.7,-0.21 5,-0.44 5.1,-0.48 0.064,-0.046 -1.1,-2.2 -2.7,-4.8 -3.7,-6.3 -12,-23 -15,-30 -11,-26 -17,-35 -25,-36 z m -452,57 c -3,-0.4 -7.7,1.8 -11,5.7 -5.1,5.6 -9.4,16 -11,26 -3.9,22 11,61 28,72 1.7,1.2 3.8,2.7 4.5,3.4 l 1.4,1.3 2.7,-2.1 c 3.3,-2.6 6.3,-4 12,-5.6 2.3,-0.67 5.5,-1.7 7.1,-2.2 4,-1.4 3.8,-0.98 -1.4,2.2 -2.5,1.5 -5.5,3.8 -6.9,5.1 -1.4,1.3 -3.7,3.2 -5,4.2 -20,15 -36,45 -36,66 0.055,9 -1.6,8.9 -3.5,-0.16 -1.3,-6.1 0.27,-18 3.3,-26 0.84,-2.1 0.86,-2 -0.84,-3.9 -0.81,-0.91 -2.1,-2.8 -2.9,-4.3 -2.2,-4.1 -5.4,-8 -7.2,-9.1 -0.88,-0.51 -3.1,-1.9 -5,-3.1 -5.5,-3.5 -14,-7.7 -20,-10 -9.2,-3.6 -13,-5.5 -21,-9.6 -22,-11 -26,-12 -27,-2.1 -1.1,20 21,45 49,58 16,7.1 27,13 28,16 0.5,0.88 1.8,2.5 2.8,3.7 2,2.1 7.6,8.7 11,13 10,12 34,30 46,33 6.3,1.7 17,2.1 24,0.84 12,-2.4 21,-10 23,-21 0.95,-4.6 1.2,-4.2 -2.1,-3.3 -8.2,2.4 -21,-0.006 -25,-4.7 -1.8,-2.1 -1.8,-2.5 0.13,-1.2 11,7.3 33,2.2 43,-9.7 11,-13 12,-26 6.1,-53 -4.9,-22 -4.8,-35 0.018,-50 2.7,-8 6.6,-15 9.7,-18 3.5,-3 -0.44,-11 -5.5,-11 -25,0 -52,52 -56,106 -0.26,3.7 -0.51,3.7 -1.3,-0.037 -2.5,-12 0.62,-34 8.1,-56 1.3,-4 2.4,-7.3 2.3,-7.4 -0.93,-0.69 -7.5,-4.2 -8.6,-4.6 -5.2,-1.8 -14,-9.6 -18,-16 -0.51,-0.82 -1.7,-2.4 -2.7,-3.6 -0.99,-1.1 -1.8,-2.2 -1.8,-2.4 0,-0.2 -0.94,-1.9 -2.1,-3.8 -3.7,-6.2 -15,-37 -18,-50 -2.1,-8.8 -4.1,-15 -6.5,-20 -1,-2 -2.5,-4 -2.5,-3.3 -0.004,0.29 -0.11,0.32 -0.27,0.092 -0.52,-0.75 -1.3,-1.2 -2.3,-1.3 z m -72,38 c -7.7,-0.008 -12,7.7 -10,20 1.3,12 17,34 31,44 1.9,1.4 4.6,3.3 5.8,4.3 12,8.7 29,27 31,35 l 0.57,1.7 2.7,-5.2 c 1.5,-2.9 4,-7.2 5.5,-9.5 3.1,-4.7 7,-9.7 11,-14 1.3,-1.4 2.3,-2.5 2.2,-2.6 -0.074,-0.055 -0.75,-0.28 -1.5,-0.5 -7.1,-2.1 -18,-15 -25,-30 l -2.3,-4.7 -3.4,-2.5 c -2.6,-2 -4.3,-3.5 -7.4,-7.3 -18,-21 -29,-29 -40,-29 z m 512,51 -6,0.055 -0.9,1.1 c -4.3,5.1 -5.8,12 -4,18 l 0.66,2.3 1.1,-1.3 c 3.3,-3.9 14,-4.2 25,-0.84 15,4.7 29,21 31,35 0.23,1.6 0.52,2.9 0.63,2.9 0.11,0 3,-1.4 6.4,-3.1 v -0.018 c 22,-11 20,-18 -10,-39 -1.5,-1 -4,-2.9 -5.5,-4.1 -9.7,-7.5 -23,-11 -39,-11 z m -326,70 0.13,2 c 0.79,12 0.005,18 -3.3,24 -4.9,9.8 -12,17 -22,21 -3.1,1.3 -2.9,1.1 -2.1,2.3 4.9,7 -5.7,25 -17,29 -2.1,0.75 -2.1,0.78 0.14,2.3 7.3,4.9 13,5.8 21,3.4 v -0.018 c 13,-3.8 21,-13 30,-31 7.1,-15 8.4,-20 8,-31 -0.25,-8 -0.47,-9.2 -2.3,-12 -0.83,-1.2 -2.2,-3.2 -3.1,-4.6 -0.99,-1.5 -2.1,-2.6 -2.8,-3 -1.4,-0.7 -5.3,-2.2 -6.5,-2.5 z m 404,-183 c -0.54,0.54 4.2,28 5.8,34 3,11 5.6,18 7.8,21 2.5,3 4.3,5.5 5.6,8.2 l 0.97,2 0.27,-3.9 c 0.14,-2.1 0.29,-9.4 0.34,-16 h -0.018 l 0.11,-12 -0.95,-4.5 c -2.5,-12 -5.5,-18 -12,-24 -2.1,-2 -7.8,-5.3 -8.3,-4.8 z"
       fill="#977dbd"
       stop-color="#000000"
       style="paint-order:stroke fill markers"
       id="path50" /><path
       d="m 390,49 c -2.4,-0.11 -8.9,0.72 -14,1.9 -14,3.1 -14,3.1 -19,5.6 -11,4.9 -15,7.2 -16,10 -1.1,3.4 -1.8,4.5 -5.8,10 -2,2.8 -3.7,5.1 -3.7,5.1 2.8e-4,0.055 2.5,0.1 5.6,0.13 8.4,0.055 14,1.9 20,6.2 2.1,1.6 2.3,1.7 2.9,1.1 0.58,-0.53 0.58,-0.52 0.14,0.055 -0.42,0.55 -0.24,0.83 1.6,2.7 2.4,2.4 1.9,2.4 3.2,0.21 1.8,-3.2 4.9,-5.2 7.8,-5 l 1.5,0.13 0.018,-3.1 c 0.004,-6.2 1.2,-11 3.6,-16 3.9,-7.8 9.5,-15 14,-19 0.35,-0.26 0.028,-0.41 -0.75,-0.45 z m 128,23 c -8.4,-0.4 -19,1.7 -37,6.2 -13,3.3 -15,4 -25,8.4 -24,11 -26,12 -38,19 -15,9.7 -26,18 -54,42 -9.7,8.4 -36,35 -49,48 -4.1,4.5 -8.8,9.6 -10,11 -1.6,1.7 -5.8,6.5 -9.4,11 -12,14 -18,20 -37,39 -10,10 -20,20 -22,22 -3.3,3.7 -19,20 -21,23 l -1.5,1.6 1.5,2 c 2.2,3.1 5.2,6.6 6.9,8.3 l 1.5,1.5 6.4,-6.5 c 3.5,-3.6 9.7,-9.5 14,-13 8.8,-7.8 27,-26 39,-39 16,-17 22,-24 29,-33 22,-26 49,-53 68,-68 68,-55 111,-69 147,-48 23,13 34,32 31,55 -0.31,2.5 -0.73,6.2 -0.93,8 -0.76,7 -3.5,17 -6.5,24 -4.5,10 -14,26 -18,29 l -1.4,1.2 2.4,4.7 c 1.3,2.6 3.1,6.6 4,8.8 l 1.7,4.1 0.77,-0.97 c 13,-16 29,-48 33,-66 3.9,-19 3.4,-28 -3.1,-53 -3.9,-15 -16,-32 -30,-42 -7.6,-5.7 -13,-8.6 -22,-9 z m -24,29 c -18,0.46 -39,7.2 -60,20 -43,26 -80,58 -123,108 -24,27 -50,54 -66,69 -4.4,3.9 -10,9.1 -13,11 -2.5,2.4 -5.2,4.8 -5.9,5.3 l -1.3,0.97 1.4,1.3 c 1.9,1.8 3.5,2.7 5.9,3.5 2,0.7 7.3,3.7 8.1,4.6 0.24,0.28 0.47,0.52 0.52,0.52 0.055,0 1.6,-3.1 3.5,-6.9 16,-33 46,-48 54,-26 l 0.43,1.2 0.7,-1.1 c 0.39,-0.63 1.3,-2.7 2,-4.6 8.8,-24 30,-52 54,-71 1.3,-1 2.5,-2.1 2.7,-2.5 0.19,-0.36 0.49,-0.56 0.66,-0.45 0.17,0.11 1.1,-0.4 2.1,-1.1 32,-23 89,-41 131,-41 l 11,0.037 13,2.1 c 28,4.7 28,5 4.1,3.1 -6.2,-0.48 -10,-0.65 -13,-0.5 -1.7,0.12 -7.5,0.51 -13,0.86 -5.4,0.35 -10,0.71 -10,0.79 -0.083,0.083 3.3,2 7.4,4.2 15,8 29,22 39,40 1.8,3.1 1.4,3.3 5,-2 12,-18 19,-34 21,-49 0.28,-2.4 0.75,-6.1 1.1,-8.3 3.3,-23 -7.8,-41 -34,-56 -8.1,-4.4 -18,-6.4 -29,-6.1 z m -117,3.5 c -0.31,0.092 -0.8,0.46 -1.5,1.1 l -1.3,1.2 0.95,1.7 c 2.6,4.5 3.1,6 4.4,13 l 0.3,1.8 2.6,-1.7 c 1.4,-0.9 3.2,-2 3.9,-2.4 l 1.3,-0.79 -2,-1.5 c -3.4,-2.5 -8.3,-9.8 -8.3,-12 0.002,-0.45 -0.13,-0.63 -0.45,-0.54 z m -92,23 c -0.24,0.028 -0.83,0.47 -2,1.4 -3.4,2.6 -12,8.9 -19,14 -14,9.4 -19,14 -24,24 -11,22 -12,48 -3.9,76 2.3,7.8 2.9,9.6 3.1,9.3 0.13,-0.15 1.7,-4.1 3.4,-8.8 4.9,-13 7.4,-19 10,-26 1.5,-3.1 4.1,-8.6 5.8,-12 3.6,-7.6 8.5,-19 11,-26 2.8,-7.2 7,-18 7,-19 0,-0.16 -1.6,0.23 -3.6,0.86 -8.1,2.6 -15,2.9 -18,0.88 -1.6,-0.91 -1.3,-1.7 0.29,-0.93 4.7,2.3 20,-1.2 25,-5.6 1.1,-1.1 2.6,-2.3 3.1,-2.7 l 1.1,-0.75 -0.18,-6.8 c -0.16,-6.5 0.34,-13 1.3,-17 0.18,-0.8 0.28,-1.2 0.037,-1.2 z m 6.8,49 c -0.13,-0.15 -0.83,0.13 -1.6,0.63 -0.73,0.5 -2,1.1 -2.7,1.3 -1.6,0.44 -2.8,2.7 -7,13 -1.6,3.9 -5.3,12 -11,23 -4.6,9.2 -8.4,17 -8.4,17 0,0.47 -0.21,0.69 4.5,-4.9 4.7,-5.7 21,-24 29,-32 l 6.2,-6.5 -3,-3.1 c -1.6,-1.7 -3.8,-4.2 -4.7,-5.5 -0.91,-1.3 -1.8,-2.5 -1.9,-2.7 z m 11,12 -1.7,1.6 c -9,8.8 -39,43 -43,48 -0.69,1 -5.9,12 -7.1,16 l -0.59,1.5 1.7,-1.4 c 0.9,-0.76 5.8,-5.6 11,-11 9.8,-9.9 18,-18 25,-27 2.6,-3 5.9,-6.8 7.3,-8.4 1.4,-1.6 5.2,-5.7 8.4,-9.2 6.5,-7 6.5,-6.9 5.2,-6.9 -1.3,0 -4.5,-1.2 -5.6,-2 z m -8.2,116 c 0.29,-1.4 -2.8,3.5 -4.5,7 -7.3,15 -8,30 -2.6,54 2.1,9.3 1.6,8.5 5.6,8.5 5.1,-0.055 8.5,-1.2 14,-4.4 2.3,-1.4 2.3,-1.4 1,-0.3 -4.1,3.6 -8.4,5.2 -14,5.2 -2.2,0 -4,0.083 -4,0.2 0,0.3 0.69,5.8 0.88,7.1 0.16,1 0.25,1.1 1.5,0.93 0.7,-0.083 2.3,0.14 3.7,0.5 3.1,0.84 2.7,0.84 5.7,0.018 1.4,-0.39 4.1,-1.5 6,-2.5 1.9,-0.98 3.5,-1.8 3.5,-1.8 0.11,-0.028 -0.88,-8.4 -1.3,-11 -0.19,-1.2 -1,-5.2 -1.9,-8.9 -1.2,-5.2 -1.5,-7 -1.3,-8.3 0.21,-1.6 0.15,-1.7 -2,-5 -2.8,-4.2 -4.6,-8.1 -6.5,-14 l -1.5,-4.5 -0.56,2 c -0.84,2.9 -3.6,14 -3.6,15 0,1 -0.58,0.51 -1.1,-0.93 -0.85,-2.6 -0.54,-10 0.66,-16 1.7,-8.9 2.4,-13 2.6,-18 0.12,-2.4 0.29,-4.7 0.4,-5.1 z"
       fill="#60157c"
       stop-color="#000000"
       style="paint-order:stroke fill markers"
       id="path52" /></g><path
     id="path408"
     style="fill:#c0e0e0;fill-opacity:0.560784;stroke-width:0.15988"
     d="M 269.43426 179.95979 C 270.16873 180.6419 270.98216 181.27722 271.97246 181.78674 C 287.67112 195.17535 296.27615 216.17564 296.905 236.60902 C 299.84226 237.1572 300.51384 219.74942 298.97229 214.28502 C 305.92313 227.78655 309.19324 243.13755 308.10315 258.29798 L 308.42359 258.4289 C 312.92698 235.57329 309.49267 211.80823 301.68829 190.05395 C 297.49038 180.82496 291.88701 167.53688 284.21011 161.14901 C 283.77274 161.52946 283.32304 161.89801 282.89119 162.28426 C 281.32776 163.68259 279.80727 165.12702 278.36972 166.66309 C 276.93217 168.19915 275.57818 169.8283 274.35043 171.59879 C 273.73655 172.48403 273.15319 173.40362 272.60749 174.3656 C 272.0618 175.32758 271.55433 176.33172 271.08731 177.38251 C 270.64948 178.1998 270.13351 179.00532 269.55931 179.80152 C 269.52096 179.8547 269.47314 179.9067 269.43426 179.95979 z " /><path
     id="path3437"
     style="fill:#c0e0e0;fill-opacity:0.560784;stroke-width:0.15988"
     d="M 89.792968 206.94399 C 83.734441 222.8296 84.448511 240.24731 87.000758 256.76608 C 90.713984 272.94729 98.932999 300.16085 107.9648 304.42709 C 108.0074 301.94082 104.53249 295.10455 104.13504 291.70876 C 101.00819 270.3495 100.91883 240.15139 105.20386 218.75763 C 104.59393 225.19982 104.59948 234.15984 107.17345 236.68522 C 107.36747 228.26293 107.76956 224.7656 110.7746 217.8295 C 110.83138 217.81174 110.8516 217.78414 110.90356 217.76502 C 109.64606 216.55188 108.44515 215.26961 107.16173 214.08962 C 104.00933 212.68856 100.94484 211.28768 97.901905 209.99607 C 95.199054 208.84882 92.5073 207.84182 89.792968 206.94399 z " /></svg>
