<?xml version="1.0" encoding="UTF-8"?>
<svg width="120" height="120" version="1.1" viewBox="0 0 120 120" xmlns="http://www.w3.org/2000/svg">
 <circle cx="60" cy="60" r="55" stop-color="#000000" stroke="#fff" stroke-linejoin="round" stroke-width="9.995" style="paint-order:stroke fill markers"/>
 <path transform="translate(-136.1 .8977)" d="m196.1 4.1a55 55 0 0 0-6.645 0.4746l-40.49 82.69a55 55 0 0 0 47.13 26.84 55 55 0 0 0 47.13-26.84l-40.52-82.75a55 55 0 0 0-6.615-0.416z" fill="#030350" stop-color="#000000" style="paint-order:stroke fill markers"/>
 <rect transform="matrix(-.8667 .5012 0 1 72.79 145.3)" x="-124.7" y="-45.23" width="46" height="46" opacity="0" stop-color="#000000" stroke-width="1.84" style="paint-order:stroke fill markers"/>
 <g transform="translate(.003385 .0008318)">
  <path transform="matrix(.8964 0 0 .8964 6.322 7.398)" d="m59.88 9.913 42.23 24.38v48.77l-42.23 24.38-42.23-24.38 1e-6 -48.77z" fill="#e00000" stop-color="#000000" stroke="#fff" stroke-linejoin="round" stroke-width="4.136" style="-inkscape-stroke:none;font-variation-settings:normal;paint-order:stroke fill markers"/>
  <path d="m22.14 74.63v3.707l36.93 21.36v-3.707z" fill="#c0e0e0" stop-color="#000000" style="paint-order:stroke fill markers"/>
  <path d="m93.12 46.06-4.572 9.664-4.572-4.375-4.572 9.664-4.574-4.375-4.571 9.664-4.574-4.375-4.761 10.06v8.946l2.078-4.086 2.683-5.669 4.574 4.375 4.572-9.664 4.572 4.375 4.572-9.664 4.572 4.375 4.572-9.664 2.683 2.567 2.055 1.664v-8.953z" fill="#c0e0e0" stop-color="#000000" style="paint-order:stroke fill markers"/>
  <path d="m97.86 71.94-36.93 21.36v1.854l36.93-21.36z" fill="#e0c000" stop-color="#000000" style="paint-order:stroke fill markers"/>
  <path d="m97.86 74.57-36.93 21.36v3.707l36.93-21.36z" fill="#c0e0e0" stop-color="#000000" style="paint-order:stroke fill markers"/>
  <path d="m26.88 46.11-4.739 4.534v8.953l2.056-1.665 2.683-2.567 4.571 9.664 4.574-4.375 4.572 9.664 4.571-4.375 4.574 9.664 4.572-4.375 2.683 5.669 2.078 4.082v-8.946l-4.761-10.06-4.572 4.375-4.572-9.664-4.572 4.375-4.572-9.664-4.574 4.375z" fill="#c0e0e0" stop-color="#000000" style="paint-order:stroke fill markers"/>
  <path d="m22.14 72v1.854l36.93 21.36v-1.854z" fill="#e0c000" stop-color="#000000" style="paint-order:stroke fill markers"/>
  <path d="m97.85 38.09-37.86 21.86m-37.86-21.86 37.86 21.86m-0.0018 43.72 1e-6 -43.72" fill="#e00000" stop-color="#000000" stroke="#fff" stroke-linecap="square" stroke-linejoin="round" stroke-width="1.854" style="paint-order:stroke fill markers"/>
  <circle transform="matrix(.8661 -.4999 .8661 .4999 0 0)" cx="-2.955" cy="72.23" r="16.68" fill="#c0e0e0" stop-color="#000000" style="paint-order:stroke fill markers"/>
  <path transform="matrix(-1.095 0 0 -.6319 28.9 23.66)" d="m-28.41-40.69 5.064 11.69 12.68 1.204-9.552 8.429 2.773 12.43-10.97-6.48-10.97 6.48 2.773-12.43-9.552-8.429 12.68-1.204z" fill="#500075" stop-color="#000000" style="paint-order:stroke fill markers"/>
 </g>
 <g stroke-linecap="round" stroke-linejoin="round">
  <circle cx="106.3" cy="102.6" r="7.414" fill="#e00000" opacity=".9779" stop-color="#000000" stroke="#fff" stroke-width="3.707" style="paint-order:stroke fill markers"/>
  <path d="m103.3 100.5-15.53-10.23 10.07-6.985-15.53-10.23" fill="none" stroke="#fff" stroke-width="7.414"/>
  <path d="m103.3 100.5-15.53-10.23 10.07-6.985-15.53-10.23" fill="none" stroke="#e0c000" stroke-width="5.097"/>
 </g>
 <circle cx="106.3" cy="102.6" r="7.414" fill="#e00000" opacity=".9779" stop-color="#000000" style="paint-order:stroke fill markers"/>
</svg>
